<?xml version="1.0" standalone="no"?>
<!DOCTYPE svg PUBLIC "-//W3C//DTD SVG 20010904//EN"
 "http://www.w3.org/TR/2001/REC-SVG-20010904/DTD/svg10.dtd">
<svg version="1.0" xmlns="http://www.w3.org/2000/svg"
 width="1110.000000pt" height="1280.000000pt" viewBox="0 0 1110.000000 1280.000000"
 preserveAspectRatio="xMidYMid meet">
<metadata>
Created by potrace 1.15, written by Peter Selinger 2001-2017
</metadata>
<g transform="translate(0.000000,1280.000000) scale(0.100000,-0.100000)"
fill="#000000" stroke="none">
<path d="M7608 12793 c-40 -6 -34 -28 12 -50 22 -10 40 -21 40 -25 0 -4 -12
-16 -27 -28 -40 -32 -53 -54 -64 -117 -6 -32 -17 -68 -25 -80 -12 -20 -81 -63
-100 -63 -4 0 -3 31 0 70 6 62 5 70 -13 82 -19 12 -19 12 1 41 26 36 37 117
16 117 -16 0 -48 -52 -158 -260 -134 -253 -148 -270 -169 -209 -16 47 -14 73
13 131 14 29 33 76 43 103 10 28 40 83 67 124 47 70 48 75 31 87 -29 21 -54
17 -67 -11 -13 -30 -24 -32 -33 -6 -10 33 -46 71 -65 71 -24 0 -36 -22 -45
-83 -4 -26 -19 -64 -32 -84 -36 -54 -43 -77 -33 -114 5 -18 8 -34 6 -37 -2 -2
-23 9 -45 24 -39 26 -42 26 -60 10 -27 -24 -52 -81 -45 -99 3 -10 -6 -24 -25
-38 -34 -25 -38 -44 -18 -92 8 -18 17 -44 21 -60 6 -25 5 -27 -18 -21 -18 4
-35 -1 -57 -17 -31 -22 -31 -22 -25 -1 7 22 -21 57 -56 68 -23 7 -23 20 -1 33
26 14 10 23 -20 12 -17 -7 -25 -16 -21 -24 3 -10 -4 -16 -20 -19 -26 -5 -36 6
-13 15 21 8 -5 25 -48 32 -33 6 -38 5 -27 -6 6 -7 12 -37 12 -66 0 -30 7 -70
15 -90 19 -45 19 -53 0 -53 -9 0 -20 11 -27 25 -11 24 -53 45 -93 45 -12 0
-43 -11 -70 -25 -28 -15 -55 -23 -67 -19 -30 9 -48 -14 -48 -61 0 -41 21 -82
60 -112 23 -19 4 -15 -40 7 -52 26 -80 26 -80 0 0 -24 -23 -73 -51 -109 -23
-28 -24 -16 -5 31 31 74 58 290 37 302 -15 10 -29 -17 -51 -98 -17 -63 -122
-286 -135 -286 -2 0 -17 14 -33 30 -35 34 -92 41 -129 15 -22 -15 -22 -15 -21
20 1 20 -4 41 -10 47 -15 15 -32 -29 -32 -82 0 -39 -20 -70 -45 -70 -22 0 -85
-60 -85 -81 0 -10 9 -23 21 -29 13 -7 18 -17 15 -27 -4 -10 2 -22 15 -31 21
-14 18 -16 -52 -37 -183 -53 -299 -155 -178 -155 30 0 23 -13 -21 -38 -42 -24
-51 -50 -25 -72 20 -17 19 -30 -7 -57 -20 -21 -20 -24 -5 -41 46 -51 3 -80
-135 -93 -111 -11 -163 -31 -163 -65 0 -27 42 -30 76 -5 33 24 71 27 88 7 15
-18 2 -27 -49 -36 -31 -5 -35 -9 -35 -35 l0 -30 58 3 c31 2 57 0 57 -4 0 -15
-42 -94 -50 -94 -4 0 -13 7 -20 15 -7 8 -22 15 -33 15 -11 0 -31 9 -43 21 -30
28 -52 20 -105 -39 l-43 -46 29 -8 c17 -3 61 -14 99 -22 77 -18 96 -29 96 -58
0 -19 -1 -19 -26 1 -63 49 -164 49 -214 0 -16 -16 -35 -29 -42 -29 -8 0 -29
-16 -48 -35 l-35 -36 30 -24 30 -24 -37 -1 c-47 0 -49 -15 -4 -31 40 -15 38
-29 -5 -29 -34 0 -37 -10 -9 -28 26 -16 19 -28 -33 -52 -23 -11 -55 -31 -72
-44 -48 -39 -26 -48 110 -44 l117 3 -53 -48 c-30 -27 -67 -55 -82 -64 -26 -13
-31 -13 -46 1 -24 22 -44 20 -69 -7 -29 -31 -28 -45 9 -90 32 -39 30 -45 -11
-22 -47 27 -69 19 -91 -29 -32 -73 -34 -101 -10 -139 26 -43 26 -50 1 -43 -11
3 -29 8 -39 11 -24 7 -52 -20 -44 -43 10 -30 46 -62 67 -62 12 0 38 14 59 31
20 17 37 27 37 22 0 -17 -93 -114 -166 -174 -41 -33 -74 -66 -74 -72 0 -7 -23
-33 -52 -59 l-53 -47 58 -1 c65 0 73 -10 21 -29 -23 -8 -34 -18 -30 -26 5 -15
-29 -65 -45 -65 -6 0 -22 14 -36 30 -30 36 -64 41 -60 8 1 -16 -5 -23 -30 -30
-42 -11 -79 -58 -99 -124 -9 -31 -29 -71 -46 -90 l-30 -34 29 0 c42 0 46 -8
22 -47 l-21 -33 25 0 c53 0 167 56 167 82 0 6 -15 8 -35 6 -19 -2 -35 -1 -35
3 0 12 83 77 112 88 38 14 58 -8 58 -65 0 -40 -4 -47 -39 -72 -41 -28 -56 -49
-65 -93 -7 -30 -28 -39 -97 -39 -56 0 -64 -7 -36 -31 l22 -19 -50 2 -50 3 3
41 c4 48 -14 68 -51 59 -32 -8 -68 -46 -49 -52 39 -14 -24 -72 -135 -125 -35
-17 -63 -32 -63 -33 0 -2 11 -15 25 -29 25 -25 35 -76 15 -76 -6 0 -21 7 -34
16 -34 22 -44 0 -17 -37 11 -15 21 -31 21 -34 0 -3 -37 -5 -82 -5 -96 0 -124
-11 -93 -36 18 -14 12 -15 -85 -14 -165 3 -170 3 -170 -20 0 -17 7 -20 43 -20
46 0 108 -34 128 -71 9 -17 6 -28 -17 -60 -15 -21 -31 -39 -35 -39 -5 0 -9 21
-9 46 0 85 -35 106 -100 62 -48 -33 -58 -53 -37 -76 9 -10 17 -21 17 -24 0 -3
-28 -3 -63 -1 -53 4 -66 2 -90 -17 -57 -45 -40 -53 146 -65 91 -6 117 -12 117
-24 0 -15 -52 -31 -100 -31 -36 0 -52 -5 -58 -17 -9 -15 -14 -12 -45 20 -45
49 -86 47 -129 -7 -24 -29 -22 -34 9 -38 19 -2 29 -10 31 -23 2 -11 10 -25 19
-32 13 -10 10 -14 -19 -29 l-33 -18 49 -9 48 -10 -76 -29 c-115 -44 -105 -53
74 -63 57 -3 108 -9 113 -14 12 -12 -39 -27 -133 -41 -41 -6 -79 -15 -84 -20
-21 -21 68 -101 95 -85 15 10 39 -14 39 -39 0 -11 -7 -41 -16 -66 -16 -45 -12
-104 7 -115 5 -4 27 8 50 26 22 17 43 29 46 25 11 -11 -31 -101 -62 -133 -23
-23 -29 -35 -21 -42 20 -17 61 -22 89 -12 36 14 35 -2 -2 -40 -16 -16 -40 -29
-53 -29 -13 0 -48 -22 -83 -51 -68 -59 -89 -85 -80 -99 15 -24 95 1 95 30 0
24 30 48 89 71 93 35 124 19 70 -37 -31 -32 -31 -34 -11 -34 31 0 27 -15 -9
-41 -21 -15 -29 -27 -26 -41 3 -12 -2 -23 -14 -31 -24 -15 -25 -30 -1 -23 9 2
37 8 62 11 l45 7 -42 -31 c-27 -19 -43 -39 -43 -52 l0 -20 -26 20 c-34 27 -54
27 -54 -1 l0 -21 -24 22 c-23 22 -23 22 -29 2 -9 -36 32 -97 118 -175 48 -44
85 -86 87 -99 3 -21 7 -22 93 -22 79 0 97 4 150 30 33 16 65 28 72 27 16 -3
141 114 159 151 9 16 13 35 10 42 -3 8 7 18 27 25 18 6 51 30 75 53 34 34 50
42 79 42 28 0 41 6 57 28 18 25 21 43 22 136 1 111 13 154 46 175 32 20 43 -8
48 -127 3 -62 9 -118 13 -125 5 -7 33 -24 63 -37 38 -17 57 -32 65 -52 l11
-28 20 40 c15 32 18 54 14 115 -4 59 -1 84 14 117 10 23 16 44 13 47 -3 3 14
27 39 55 66 73 88 170 67 292 -7 41 -13 92 -13 113 -1 34 2 41 23 46 29 7 57
44 66 86 5 28 0 39 -49 94 -35 41 -58 78 -65 105 -17 69 -30 427 -22 600 10
192 26 247 102 329 63 69 109 88 208 84 69 -3 74 -2 93 24 29 37 18 84 -33
142 -47 53 -47 52 24 211 66 149 76 192 92 393 8 105 19 190 26 198 6 8 25 14
41 14 40 0 94 24 107 48 6 12 8 40 5 64 -6 41 -3 49 32 96 58 76 164 256 164
278 0 10 -14 39 -30 64 -16 25 -30 52 -30 60 0 9 18 34 41 55 24 24 57 74 81
123 44 92 103 162 137 162 12 0 35 -7 52 -16 65 -33 92 7 103 150 4 50 12 98
18 109 15 29 64 18 208 -46 171 -75 164 -75 171 -2 4 33 16 82 28 108 27 61
26 71 -3 143 -13 32 -22 62 -19 66 2 5 17 8 32 8 26 0 63 16 161 72 25 14 59
29 76 33 43 8 77 -22 141 -127 110 -179 174 -211 287 -143 32 19 69 35 81 35
13 0 54 -18 91 -40 92 -53 107 -52 139 9 25 49 47 72 104 103 l31 17 -1 93
c-1 86 2 104 44 228 l46 135 103 38 c57 20 136 57 177 82 40 25 76 45 80 45
18 0 219 -182 249 -225 31 -45 34 -55 30 -105 -3 -42 -13 -70 -42 -117 -41
-66 -45 -108 -12 -108 13 0 23 12 33 40 16 46 50 85 113 128 60 41 71 57 65
89 -6 37 -34 78 -52 78 -8 0 -26 -9 -40 -20 -48 -38 -60 -12 -18 38 36 43 33
62 -11 62 -20 0 -33 4 -29 10 11 18 -15 49 -74 89 -57 39 -77 64 -65 82 10 16
52 9 130 -21 92 -37 91 -37 232 54 l103 67 -32 41 c-40 50 -85 71 -128 58 -34
-10 -38 -3 -16 26 21 28 18 51 -7 58 -34 9 -36 8 -43 -14 -6 -20 -6 -20 -33 0
-15 12 -43 31 -62 43 -21 13 -39 36 -46 55 -5 18 -15 37 -21 43 -17 17 -68
-36 -94 -98 -34 -85 -58 -122 -90 -138 -40 -21 -46 -3 -19 56 13 27 20 52 16
56 -3 4 -27 -3 -51 -15 -25 -12 -45 -20 -45 -17 0 2 9 20 21 39 12 21 18 43
14 55 -7 23 19 41 58 41 27 0 57 28 57 54 0 36 -105 55 -212 39z m-4183 -4385
c8 -21 11 -38 6 -38 -15 0 -31 25 -37 61 -8 43 8 30 31 -23z"/>
<path d="M6870 12610 c0 -28 21 -70 35 -70 15 0 45 32 45 48 0 12 -50 42 -70
42 -5 0 -10 -9 -10 -20z"/>
<path d="M5957 12221 c-3 -11 -17 -22 -36 -26 -17 -4 -31 -11 -31 -17 0 -13
55 -68 69 -68 19 0 41 32 41 61 0 54 -32 91 -43 50z"/>
<path d="M7620 12184 c-52 -30 -113 -59 -135 -65 -55 -16 -99 -67 -134 -158
-38 -99 -50 -171 -44 -253 l6 -67 -33 -18 c-76 -42 -110 -87 -124 -165 -4 -21
-11 -38 -15 -38 -4 0 -51 25 -104 55 -54 31 -108 55 -124 55 -15 0 -48 -14
-73 -30 -119 -79 -199 -35 -331 183 -52 86 -58 92 -85 89 -49 -6 -74 -28 -74
-67 0 -39 -1 -39 -50 -25 -23 6 -38 6 -44 0 -16 -16 112 -134 249 -230 155
-108 251 -204 295 -293 30 -61 34 -79 40 -189 6 -95 11 -124 24 -133 12 -9 16
-28 16 -72 0 -44 7 -76 26 -118 24 -51 26 -65 20 -134 -18 -231 -19 -236 -2
-298 32 -128 86 -200 186 -251 32 -15 60 -38 67 -53 15 -32 42 -185 46 -259
l2 -55 -52 0 c-46 0 -56 -4 -88 -35 -20 -19 -77 -95 -127 -169 -111 -164 -150
-209 -205 -233 -23 -10 -54 -33 -69 -51 -37 -43 -74 -125 -74 -163 0 -40 -13
-51 -79 -65 -54 -11 -62 -20 -75 -81 -3 -14 -24 -49 -46 -76 -21 -28 -42 -61
-45 -74 -3 -13 3 -63 15 -111 11 -48 20 -119 20 -158 0 -52 6 -85 25 -129 28
-68 31 -118 11 -199 -20 -80 -39 -264 -31 -301 8 -36 51 -60 107 -60 47 0 62
-13 54 -44 -5 -21 -2 -28 17 -37 18 -8 36 -6 82 10 33 12 62 21 66 21 4 0 5
-28 2 -62 -3 -46 -1 -68 10 -83 15 -19 17 -19 158 14 93 22 173 48 225 73 44
21 105 43 135 47 31 5 96 25 147 45 57 23 121 39 172 45 62 7 90 15 120 36 40
28 382 394 470 505 85 105 185 250 226 325 32 57 39 80 39 125 0 76 -28 116
-131 191 -54 39 -103 84 -134 126 -28 36 -50 69 -50 72 1 3 24 22 52 41 94 63
99 104 23 190 -43 49 -45 53 -45 115 0 52 -4 68 -24 92 -34 41 -46 94 -46 210
0 127 15 199 46 228 13 12 24 33 24 46 0 44 -42 171 -116 351 -42 101 -78 191
-81 201 -3 10 10 43 33 80 22 34 64 111 95 171 l57 110 -40 65 c-51 84 -99
134 -164 171 -53 30 -66 49 -84 130 -14 66 -12 131 7 190 13 41 14 56 5 71
-17 27 -15 38 15 81 18 26 26 50 25 75 -1 26 11 59 40 111 74 134 53 198 -109
332 -53 44 -101 79 -107 79 -6 -1 -54 -26 -106 -55z"/>
<path d="M5794 12045 c-19 -47 -19 -95 1 -95 23 0 65 46 65 70 0 30 -18 60
-36 60 -8 0 -22 -16 -30 -35z"/>
<path d="M5963 12054 c-32 -50 -13 -179 27 -179 28 0 51 65 48 135 -3 62 -4
65 -30 68 -20 2 -31 -4 -45 -24z"/>
<path d="M5647 11910 c-29 -23 -64 -117 -54 -144 14 -37 97 4 97 49 0 12 7 28
15 35 27 23 13 80 -21 80 -6 0 -23 -9 -37 -20z"/>
<path d="M6184 11659 c-3 -6 1 -37 11 -69 l18 -59 -32 -65 c-26 -55 -29 -69
-19 -85 14 -24 -4 -65 -38 -88 -20 -13 -29 -11 -91 17 -37 17 -97 38 -133 45
-44 10 -69 21 -79 35 -7 11 -19 20 -27 20 -16 0 -34 -60 -34 -115 0 -84 -43
-195 -75 -195 -8 0 -37 12 -64 27 l-49 28 -22 -20 c-29 -27 -65 -89 -95 -166
-27 -69 -59 -109 -86 -109 -32 0 -31 -20 6 -86 25 -45 35 -73 31 -88 -3 -13
-34 -66 -67 -117 -74 -112 -116 -197 -128 -262 -11 -59 -22 -72 -79 -93 -82
-30 -84 -33 -98 -211 -15 -184 -27 -236 -94 -392 -63 -151 -67 -167 -42 -173
51 -14 73 -135 36 -199 l-20 -34 -95 3 c-85 3 -97 1 -129 -20 -98 -66 -136
-168 -146 -390 -7 -162 9 -508 26 -569 6 -20 34 -66 64 -102 50 -61 53 -68 46
-104 -10 -55 -37 -102 -65 -113 -30 -11 -29 -10 -9 -97 17 -74 14 -179 -7
-246 -7 -21 -30 -56 -51 -78 -28 -28 -38 -48 -38 -70 0 -18 -7 -37 -16 -43
-11 -9 -17 -41 -23 -122 -12 -160 -41 -205 -99 -151 l-25 22 7 -80 c12 -150
67 -307 203 -579 36 -72 78 -149 93 -171 17 -25 30 -59 34 -90 6 -56 -6 -124
-25 -136 -9 -5 -1 -29 30 -92 29 -58 41 -92 36 -106 -8 -27 2 -58 21 -65 17
-7 172 31 192 46 6 6 12 29 12 53 0 79 28 125 77 125 12 0 23 12 30 31 l12 31
106 -7 c125 -8 124 -9 171 89 48 101 79 262 124 645 6 52 16 103 22 115 6 12
44 55 84 97 45 46 74 85 74 98 0 24 15 28 24 6 5 -14 9 -14 35 0 37 18 61 52
61 83 0 19 3 21 19 12 57 -30 88 6 41 50 -16 15 -30 32 -30 37 0 5 15 16 33
25 51 24 97 68 97 91 0 71 -172 268 -277 318 -89 43 -97 61 -97 249 -1 141 0
148 37 263 37 118 46 180 27 192 -24 15 -7 46 46 86 37 27 61 54 73 82 43 100
226 288 386 397 112 76 125 89 178 195 19 39 58 99 86 134 l52 63 -42 45 c-38
42 -41 48 -37 92 3 26 16 64 32 89 15 23 30 63 35 87 5 29 22 61 47 90 22 26
51 61 67 78 19 23 31 53 40 102 10 59 16 70 32 70 11 0 21 8 23 18 4 21 0 22
64 -8 67 -31 204 -37 215 -9 3 9 -4 58 -16 108 -23 97 -27 185 -11 251 19 80
14 166 -14 225 -15 33 -26 73 -26 99 0 28 -6 48 -15 55 -12 9 -18 44 -24 152
-7 132 -10 144 -41 202 -18 34 -60 89 -94 122 -59 57 -97 88 -276 220 -41 30
-101 81 -132 112 -58 59 -72 66 -84 47z"/>
<path d="M5133 11580 c-7 -10 -33 -28 -58 -39 -33 -15 -45 -26 -45 -41 0 -23
17 -22 73 7 34 17 34 12 -3 -42 -40 -59 -40 -79 1 -71 17 3 34 6 38 6 14 0 33
93 28 136 -6 55 -18 71 -34 44z"/>
<path d="M5263 11565 c-11 -8 -25 -34 -31 -58 -6 -24 -21 -52 -32 -62 -11 -10
-20 -30 -20 -45 0 -35 -17 -50 -59 -50 -68 -1 -161 -60 -148 -95 13 -31 69
-15 124 37 17 17 36 27 41 24 6 -3 31 10 56 29 26 19 48 35 51 35 3 0 -1 -16
-9 -35 -24 -57 3 -44 99 48 83 80 86 85 83 123 -4 52 -34 58 -71 15 -32 -38
-37 -39 -37 -2 0 39 -20 55 -47 36z"/>
<path d="M6093 7623 c-19 -7 -16 -62 3 -70 21 -8 44 21 44 54 0 23 -17 29 -47
16z"/>
<path d="M6632 7567 c-26 -27 -27 -33 -8 -40 18 -7 66 29 66 49 0 22 -34 17
-58 -9z"/>
<path d="M7229 7327 c-14 -8 -62 -16 -105 -19 -83 -5 -156 -32 -168 -63 -3 -8
-26 -24 -50 -35 -59 -25 -72 -49 -56 -106 7 -24 19 -49 26 -55 18 -15 18 -29
0 -29 -25 0 -26 -15 -5 -56 41 -77 98 -117 113 -79 3 8 15 15 26 15 26 0 44
-43 35 -86 -11 -63 16 -80 77 -48 19 10 42 14 63 10 44 -9 140 -73 200 -135
54 -55 64 -59 100 -35 16 11 34 14 55 9 53 -12 130 52 130 108 0 14 -7 42 -17
63 -23 56 -21 181 6 264 11 36 41 99 66 140 l45 75 -123 6 c-89 4 -147 13
-215 33 -122 35 -170 41 -203 23z"/>
<path d="M6621 7116 c-16 -20 3 -56 29 -56 18 0 50 24 50 39 0 29 -59 41 -79
17z"/>
<path d="M6624 6949 c-17 -5 -38 -17 -48 -28 -22 -25 -18 -75 7 -79 22 -4 120
44 144 70 17 19 17 20 -2 34 -21 16 -54 17 -101 3z"/>
<path d="M1075 6907 c-9 -24 -25 -75 -34 -113 -16 -61 -22 -71 -54 -89 -44
-24 -67 -62 -67 -112 0 -42 17 -65 57 -77 l23 -7 -24 -32 c-38 -51 -86 -154
-86 -185 0 -15 5 -33 12 -40 9 -9 7 -12 -9 -12 -56 0 -72 -37 -29 -65 37 -24
69 -10 137 62 l61 65 -25 -48 c-13 -27 -35 -77 -47 -112 -20 -56 -22 -67 -10
-104 11 -40 13 -41 24 -20 11 20 14 21 31 7 11 -8 39 -15 62 -15 l41 0 0 -52
c0 -29 3 -69 7 -88 5 -28 0 -49 -29 -110 -20 -41 -36 -84 -36 -95 0 -23 75
-102 82 -88 3 4 8 21 12 36 5 22 11 27 24 22 57 -24 71 -27 95 -22 24 7 33 14
65 52 13 16 112 22 112 7 0 -5 -13 -21 -30 -37 -39 -37 -64 -104 -56 -148 7
-39 29 -61 69 -71 17 -4 31 -16 37 -32 15 -38 12 -120 -5 -161 -8 -19 -15 -37
-15 -38 0 -1 13 -19 30 -40 32 -40 29 -64 -11 -85 -15 -9 -25 -7 -45 9 -54 42
-153 34 -200 -16 -33 -36 -31 -60 7 -68 22 -5 29 -11 24 -22 -3 -9 1 -24 10
-33 14 -15 14 -22 -2 -69 -24 -74 -80 -135 -151 -161 -31 -12 -62 -26 -69 -32
-14 -11 -17 -67 -7 -105 l6 -23 45 27 c40 23 48 25 82 14 21 -6 60 -13 85 -15
36 -4 56 -13 86 -40 34 -31 43 -34 65 -26 49 19 87 42 128 78 l41 37 -24 -40
c-68 -116 -93 -134 -197 -146 -60 -7 -87 -15 -118 -37 -65 -46 -247 -273 -232
-289 4 -3 40 8 80 25 98 42 115 45 166 27 66 -23 76 -20 110 35 50 81 116 109
180 75 16 -8 47 -17 70 -21 37 -6 41 -4 41 14 0 28 18 31 262 42 225 10 268
17 335 56 39 23 83 67 83 85 0 4 -26 10 -57 14 -111 12 -144 43 -84 77 16 9
31 26 33 39 2 15 24 38 62 64 132 93 155 245 44 295 -61 28 -154 27 -184 -1
-17 -16 -29 -19 -54 -14 -42 9 -47 28 -16 68 66 86 31 164 -95 213 -63 24 -66
30 -37 61 36 39 68 94 68 119 0 35 -35 69 -109 108 -39 20 -77 47 -86 59 -15
20 -59 154 -85 256 -14 53 -84 132 -155 172 -42 24 -61 29 -123 29 -74 0 -149
21 -138 39 4 5 23 15 44 21 103 34 180 101 96 86 -19 -4 -42 -10 -50 -13 -32
-12 -11 14 37 47 73 49 112 99 169 214 59 119 82 203 59 216 -51 32 -272 17
-373 -26 -110 -46 -115 -44 -70 34 14 24 28 61 30 81 2 31 16 48 96 123 89 84
92 88 75 105 -15 16 -41 18 -186 21 l-169 3 -17 -44z"/>
<path d="M7116 6730 c-27 -11 -60 -29 -73 -42 -23 -21 -25 -28 -19 -86 8 -81
-6 -133 -51 -182 -77 -86 -172 -70 -228 37 -16 32 -49 78 -72 102 -41 42 -44
44 -88 38 -59 -8 -138 -49 -152 -79 -6 -12 -15 -45 -18 -73 -4 -27 -23 -90
-42 -140 -25 -63 -37 -112 -41 -164 -3 -42 -1 -72 4 -69 5 3 42 25 82 48 66
39 82 44 153 48 43 2 159 -3 259 -13 180 -17 180 -17 220 4 23 12 42 21 45 21
2 0 25 -18 50 -40 25 -22 53 -40 61 -40 30 0 79 -34 155 -106 43 -41 82 -74
87 -74 5 0 22 10 36 21 18 14 49 24 89 28 74 8 96 22 149 93 38 50 40 56 35
104 -6 60 -38 129 -67 144 -18 10 -19 18 -13 99 l6 89 -43 31 c-59 43 -109 57
-151 42 -17 -6 -39 -11 -47 -11 -8 0 -51 36 -96 80 -74 72 -134 111 -168 110
-7 -1 -35 -10 -62 -20z"/>
<path d="M5895 6722 c-70 -43 -128 -141 -129 -215 0 -61 19 -84 52 -61 33 23
62 87 62 139 0 45 6 55 59 98 24 19 25 50 1 54 -8 2 -29 -5 -45 -15z"/>
<path d="M4114 6562 c-21 -16 -45 -37 -53 -46 -29 -35 -100 -76 -150 -87 -27
-6 -68 -24 -90 -40 -65 -47 -74 -73 -79 -245 -7 -214 0 -255 48 -303 30 -30
40 -48 45 -87 4 -27 9 -57 12 -67 7 -27 45 -47 99 -53 39 -4 56 -1 83 16 23
14 30 24 22 29 -45 28 -39 241 8 254 11 2 21 15 23 28 2 15 12 25 28 29 21 5
26 13 31 50 7 49 40 84 70 75 18 -6 69 33 69 53 0 5 -18 12 -39 16 -59 9 -81
43 -81 122 0 36 9 97 20 136 23 83 25 119 8 136 -18 18 -31 15 -74 -16z"/>
<path d="M7059 6128 c-26 -19 -32 -20 -141 -9 -163 16 -410 14 -451 -3 -18 -7
-47 -30 -65 -50 -27 -31 -32 -44 -32 -90 0 -60 23 -146 51 -193 24 -39 92 -73
145 -73 53 -1 121 -33 136 -65 9 -19 9 -37 0 -75 -14 -62 -11 -70 39 -100 23
-14 54 -44 69 -66 38 -55 82 -74 165 -74 62 0 69 2 95 30 16 17 48 37 72 46
78 27 138 104 153 196 5 30 13 40 43 55 23 11 39 27 42 43 4 16 16 28 35 35
39 12 42 15 26 24 -7 5 -14 30 -15 57 -2 27 -10 63 -19 79 -41 79 -153 175
-204 175 -13 0 -42 17 -67 40 -24 22 -45 40 -47 39 -2 0 -16 -9 -30 -21z"/>
<path d="M7731 6006 c-65 -60 -93 -72 -145 -62 -44 8 -79 -19 -99 -77 -13 -39
-13 -46 1 -70 20 -32 7 -80 -23 -86 -50 -9 -145 -113 -145 -157 0 -12 -11 -36
-25 -52 -19 -23 -24 -37 -19 -59 6 -29 4 -30 -33 -35 -64 -9 -133 -44 -133
-67 0 -27 -67 -45 -139 -38 -30 3 -63 1 -73 -4 -23 -12 -24 -70 -2 -171 9 -40
16 -107 17 -149 1 -89 -15 -124 -63 -134 -29 -6 -50 -30 -50 -55 0 -7 21 -33
46 -58 44 -43 46 -47 41 -87 -10 -69 25 -84 91 -40 55 36 110 44 279 45 169 0
292 -18 335 -50 40 -30 93 -38 323 -55 258 -18 267 -19 298 -51 28 -28 29 -28
42 51 14 80 68 142 150 172 48 18 50 20 53 62 2 25 -8 81 -23 137 -30 104 -28
135 10 152 21 10 32 9 55 -3 37 -19 73 -19 113 1 68 35 81 60 48 91 -11 10
-21 31 -23 48 -3 28 -7 30 -57 38 -62 8 -76 17 -86 54 -3 14 -23 46 -45 70
-51 58 -131 218 -132 263 0 19 3 55 7 80 13 86 -58 187 -160 225 -47 18 -48
18 -89 -3 -56 -30 -66 -28 -66 13 0 46 -34 70 -85 61 -27 -5 -35 -4 -35 7 0
19 -22 27 -51 20 -14 -4 -26 0 -35 11 -11 16 -18 13 -73 -38z"/>
<path d="M4520 6016 c-59 -22 -155 -73 -170 -91 -11 -14 -11 -24 4 -65 10 -27
15 -53 12 -58 -10 -17 119 -120 172 -136 26 -8 28 2 7 30 -22 29 -18 42 15 59
l30 16 -22 29 c-29 40 -17 82 27 90 28 5 30 9 29 47 -1 47 -26 93 -52 92 -9 0
-33 -6 -52 -13z"/>
<path d="M510 5739 c-90 -49 -93 -51 -124 -112 -28 -57 -22 -63 51 -52 56 8
90 24 120 57 23 25 73 118 73 137 0 22 -46 10 -120 -30z"/>
<path d="M5060 5735 c0 -19 36 -55 55 -55 20 0 19 12 -6 44 -22 29 -49 35 -49
11z"/>
<path d="M6297 5705 c-41 -38 -45 -44 -28 -50 28 -9 70 4 81 25 12 22 13 70 3
70 -5 -1 -29 -21 -56 -45z"/>
<path d="M724 5710 c-56 -28 -187 -142 -214 -186 l-22 -35 26 -37 c47 -65 67
-86 74 -76 26 39 87 104 97 104 7 0 18 -14 25 -31 16 -39 75 -79 117 -79 19 0
43 10 61 25 53 44 78 145 36 145 -17 0 -30 29 -39 84 -8 47 -61 106 -96 106
-13 0 -43 -9 -65 -20z"/>
<path d="M3863 5578 c50 -79 51 -85 17 -110 -35 -26 -37 -34 -10 -41 11 -3 20
-13 20 -22 0 -34 125 -177 200 -229 l25 -18 -35 7 c-38 8 -86 32 -139 70 -39
29 -110 50 -122 38 -4 -4 -4 -28 2 -52 7 -31 6 -47 -2 -57 -21 -25 -94 -14
-102 15 -8 30 -136 44 -171 18 -16 -11 -16 -19 -6 -80 21 -118 -11 -236 -65
-245 -40 -8 -40 -22 -1 -58 32 -29 37 -39 31 -62 -12 -47 -55 -93 -111 -118
-30 -13 -54 -29 -55 -36 0 -7 0 -32 1 -56 1 -23 -6 -73 -16 -111 -18 -68 -18
-69 5 -132 59 -162 55 -145 33 -180 l-20 -32 29 -61 c16 -34 29 -77 29 -95 0
-57 36 -84 199 -148 80 -31 147 -57 148 -57 0 -1 -18 -41 -42 -91 -48 -100
-72 -168 -85 -233 -10 -56 -1 -60 99 -38 99 21 197 22 205 1 3 -10 14 -13 33
-9 20 4 51 -6 112 -36 58 -29 91 -40 110 -37 14 3 67 12 116 20 50 9 128 25
175 36 107 26 150 26 200 1 48 -24 49 -19 20 66 -12 32 -18 69 -15 81 3 12 48
59 100 104 l95 82 -123 127 c-118 123 -178 205 -191 264 -6 24 -1 34 32 65 45
42 249 150 342 180 82 27 135 62 156 103 21 40 15 110 -21 258 -32 134 -60
202 -102 252 -38 46 -38 47 -17 96 39 88 35 192 -12 284 -27 54 -54 72 -95 64
-21 -4 -39 3 -76 29 -104 75 -100 75 -209 21 -53 -26 -114 -64 -135 -83 -36
-33 -43 -35 -85 -29 -90 12 -111 48 -49 85 61 36 47 46 -79 54 -48 4 -73 10
-82 21 -6 9 -25 16 -41 16 -42 0 -48 11 -18 34 31 25 26 49 -13 65 -24 10
-195 50 -215 51 -4 0 7 -24 26 -52z"/>
<path d="M5610 5564 c-107 -32 -162 -56 -225 -100 -30 -20 -115 -57 -204 -89
-187 -66 -196 -72 -185 -140 14 -88 9 -157 -14 -202 -28 -54 -28 -71 2 -102
63 -66 119 -246 135 -430 9 -102 11 -106 43 -134 75 -63 96 -76 150 -92 31 -9
69 -26 84 -37 26 -21 26 -22 5 -29 -29 -11 -27 -23 14 -64 52 -51 93 -43 78
16 -6 20 -4 21 23 15 91 -21 329 -159 380 -219 37 -45 50 -50 78 -32 31 20 46
13 104 -49 24 -25 49 -46 56 -46 7 0 41 14 75 32 109 56 229 42 393 -46 42
-22 80 -38 84 -33 4 4 0 23 -9 42 -37 77 -27 94 165 291 118 121 117 119 75
200 -32 63 -56 158 -63 251 -7 107 -17 133 -63 177 -17 17 -31 35 -31 41 0 6
23 33 51 60 28 28 59 66 69 86 17 32 17 42 5 110 -15 87 -58 250 -86 325 -15
41 -26 54 -47 59 -51 13 -437 21 -572 12 -229 -16 -259 -15 -307 16 -30 19
-45 37 -52 63 -22 81 -65 91 -211 48z"/>
<path d="M4750 5520 c0 -6 7 -26 14 -45 16 -37 38 -39 56 -5 8 15 4 23 -16 39
-29 23 -54 27 -54 11z"/>
<path d="M373 5454 l5 -47 -65 7 c-60 6 -65 5 -70 -14 -5 -20 -6 -20 -29 5
-38 41 -96 28 -135 -31 -26 -41 -24 -54 10 -54 78 0 82 -39 11 -110 -27 -28
-50 -55 -50 -60 0 -22 52 -41 135 -51 48 -5 92 -12 97 -15 17 -11 3 -31 -42
-66 -34 -26 -46 -41 -48 -66 -3 -27 1 -34 23 -42 14 -6 40 -10 58 -10 41 0 25
-13 -43 -35 -79 -25 -110 -50 -110 -86 0 -42 -23 -81 -72 -124 -24 -20 -35
-34 -26 -31 10 3 40 8 68 12 47 6 50 5 50 -16 0 -13 8 -24 20 -27 14 -4 20
-14 20 -34 0 -22 5 -29 20 -29 30 0 143 54 167 79 14 15 35 23 62 25 30 2 51
12 80 39 47 42 65 52 111 62 19 4 45 17 58 28 22 21 23 21 53 3 40 -23 50 -14
80 74 57 169 24 415 -71 525 -21 25 -42 55 -46 67 -6 21 -10 19 -60 -37 l-53
-59 -62 67 c-61 67 -103 97 -135 97 -14 0 -16 -8 -11 -46z"/>
<path d="M3260 5110 c-55 -14 -78 -53 -72 -123 1 -10 15 -29 31 -43 33 -28 64
-97 56 -125 -11 -35 -64 -69 -106 -69 -55 0 -79 39 -79 132 0 98 -24 102 -54
9 -10 -30 -42 -103 -71 -162 l-55 -108 58 -11 c113 -22 113 -22 33 -59 -39
-18 -71 -33 -71 -35 0 -1 32 0 70 2 67 4 73 3 138 -37 37 -22 82 -46 101 -52
31 -11 36 -10 54 12 16 20 18 33 13 79 -13 108 -15 100 36 120 64 24 101 52
123 94 l19 36 -32 33 c-18 18 -32 37 -32 41 0 4 20 30 44 57 79 88 81 150 7
193 -38 22 -153 31 -211 16z"/>
<path d="M8782 4760 c-22 -13 -48 -20 -77 -18 -29 1 -51 -4 -63 -15 -21 -19
-92 -36 -153 -37 -70 0 -144 -26 -172 -60 -19 -22 -27 -46 -32 -97 -12 -110
-36 -132 -74 -67 -21 36 -23 36 -69 30 -36 -5 -62 -1 -110 16 -62 22 -64 22
-97 4 -27 -15 -39 -16 -67 -8 -18 6 -82 16 -142 21 -91 9 -117 16 -161 41 -89
51 -297 73 -458 49 -54 -8 -85 -19 -123 -45 -28 -19 -56 -34 -62 -34 -16 0
-32 -34 -32 -67 0 -16 16 -62 36 -103 29 -59 36 -86 36 -128 -1 -57 -15 -92
-36 -92 -20 0 -108 -82 -164 -153 -74 -93 -75 -97 -57 -166 23 -90 21 -98 -20
-93 -30 4 -37 0 -54 -29 -46 -75 -31 -163 35 -201 53 -31 181 -58 270 -58 85
0 125 -9 150 -35 9 -8 27 -15 41 -15 77 0 255 73 302 124 35 37 84 51 181 49
136 -1 297 -54 369 -122 28 -27 31 -34 31 -93 0 -63 0 -64 33 -73 29 -9 33
-15 43 -65 12 -61 25 -90 48 -110 10 -7 16 -28 16 -52 0 -32 4 -41 20 -45 32
-9 18 -27 -31 -39 -54 -13 -76 -8 -82 18 -5 16 -9 18 -25 9 -39 -21 -182 -261
-182 -305 0 -16 5 -18 33 -12 57 10 210 93 278 150 75 62 103 97 121 152 12
35 19 41 68 58 33 11 85 19 130 20 63 1 80 -3 108 -22 38 -28 40 -44 7 -62
-14 -7 -25 -17 -25 -21 0 -13 61 -27 165 -39 208 -24 220 -69 42 -157 l-78
-39 75 -48 c42 -26 81 -56 86 -66 6 -10 10 -44 10 -75 0 -64 13 -95 39 -95 9
0 59 20 110 45 51 25 99 45 106 45 28 0 62 22 79 52 l18 30 78 -7 c84 -7 133
7 142 42 12 47 -11 53 -112 26 -36 -9 -77 -13 -90 -10 -14 3 -53 33 -86 67
-37 35 -70 60 -83 60 -47 0 -12 79 71 158 36 34 253 126 333 141 24 4 56 17
71 28 16 11 67 33 114 48 117 38 136 49 143 82 7 33 97 137 138 158 16 9 55
15 92 15 75 0 82 6 98 80 9 45 9 62 -6 110 -23 74 -15 112 36 187 l40 58 -37
32 c-61 54 -328 153 -373 138 -14 -4 -28 5 -53 36 -102 127 -110 130 -191 79
-59 -37 -69 -37 -114 -3 -30 23 -46 28 -96 28 -54 0 -62 3 -80 28 -15 19 -21
41 -20 69 1 22 -4 53 -12 67 -13 26 -72 90 -84 92 -3 0 -29 2 -58 2 -33 1 -58
8 -69 18 -24 25 -37 105 -22 145 19 54 -22 129 -90 163 -61 30 -85 32 -120 11z"/>
<path d="M2990 4469 c-146 -54 -147 -54 -200 -40 -27 7 -63 10 -79 6 -56 -12
-103 -78 -87 -121 5 -14 15 -15 56 -10 49 7 49 7 69 -31 24 -47 42 -64 108
-97 61 -30 88 -65 79 -100 -11 -46 24 -42 87 10 34 29 47 30 47 6 0 -36 52
-123 88 -147 69 -47 108 -27 97 48 -8 52 18 122 41 113 22 -8 47 38 39 73 -8
37 -48 81 -73 81 -27 0 -39 17 -47 70 -9 54 -25 75 -86 105 -25 13 -51 31 -58
39 -16 20 -14 20 -81 -5z"/>
<path d="M2484 4330 c-42 -21 -64 -53 -64 -94 0 -49 -31 -125 -70 -168 -25
-29 -69 -61 -119 -87 -95 -49 -111 -64 -111 -100 0 -42 -17 -51 -99 -51 -99 0
-176 21 -202 54 -22 28 -99 73 -99 58 0 -5 7 -31 15 -58 8 -27 22 -87 31 -134
8 -47 18 -93 20 -102 5 -15 -1 -18 -38 -18 -45 0 -147 -14 -185 -26 -17 -5
-33 5 -76 45 -58 55 -68 59 -88 35 -23 -28 -67 -44 -146 -54 -89 -12 -121 -32
-88 -56 57 -41 58 -43 52 -105 l-5 -59 33 0 c18 0 71 -16 117 -36 45 -20 115
-44 153 -53 65 -16 70 -19 70 -45 1 -19 14 -39 43 -66 33 -31 42 -46 42 -73 0
-46 51 -120 107 -154 25 -15 58 -39 74 -53 l29 -25 -15 -180 c-21 -253 -38
-358 -81 -501 -29 -98 -29 -104 -6 -104 24 0 42 -19 35 -36 -8 -22 14 -42 75
-65 46 -17 92 -23 232 -29 197 -10 264 -25 325 -73 35 -28 47 -32 101 -32 84
0 108 18 130 96 20 72 56 111 144 158 86 46 128 43 325 -19 87 -27 165 -50
173 -50 23 0 67 27 139 87 39 32 85 66 102 75 29 16 71 71 71 94 0 6 -13 9
-30 6 -38 -5 -71 16 -110 70 -24 32 -30 52 -30 92 -1 28 -7 62 -15 76 -22 38
-18 48 26 76 46 29 46 29 8 127 -18 48 -20 63 -11 78 7 10 12 27 12 38 0 25
-47 81 -68 81 -10 0 -42 -16 -72 -35 -30 -18 -56 -32 -58 -31 -1 2 7 19 18 39
14 23 19 44 15 60 -5 20 -1 29 24 47 17 12 38 38 46 57 9 20 33 56 55 80 22
24 43 56 46 72 5 21 15 33 34 40 35 12 48 36 89 164 17 54 43 123 56 154 35
78 33 109 -5 117 -17 3 -88 30 -158 60 -71 31 -169 67 -218 81 -65 18 -111 40
-169 79 -101 68 -117 76 -154 76 -35 0 -43 11 -51 65 -5 37 -7 40 -47 47 -56
9 -98 42 -123 95 l-20 44 -50 -7 -51 -7 -16 42 c-14 36 -20 41 -47 41 -17 0
-49 -9 -72 -20z"/>
<path d="M5000 4301 c-152 -42 -349 -138 -395 -193 -31 -36 -28 -62 12 -121
69 -100 267 -298 333 -332 45 -23 57 -19 121 42 l60 57 47 -13 c26 -8 70 -20
97 -28 77 -22 245 -30 259 -12 7 9 29 14 57 14 58 0 123 40 143 90 11 25 33
46 75 73 77 47 80 69 16 114 -60 42 -199 115 -246 129 -35 11 -40 10 -69 -15
-17 -14 -36 -26 -41 -26 -18 0 -109 93 -115 117 -8 30 -42 48 -121 64 -50 10
-63 17 -65 33 -3 18 -11 21 -53 23 -27 1 -79 -6 -115 -16z"/>
<path d="M3292 4058 c-7 -7 -12 -31 -12 -54 0 -85 36 -128 72 -85 22 28 23 62
3 101 -19 37 -47 54 -63 38z"/>
<path d="M5961 3883 c-28 -22 -36 -24 -53 -14 -12 7 -32 10 -50 6 -37 -9 -98
-61 -98 -85 0 -32 -84 -96 -149 -114 -77 -21 -105 -54 -98 -110 7 -50 50 -112
106 -151 37 -26 51 -30 105 -29 95 3 142 19 154 53 11 31 21 36 94 46 25 3 52
13 58 20 8 10 31 15 66 15 50 0 56 3 98 46 l46 46 99 -4 c77 -2 103 -7 118
-20 44 -40 83 -13 133 90 51 106 52 102 -37 139 -158 66 -251 68 -359 8 -80
-45 -103 -43 -121 9 -16 47 -40 76 -62 76 -9 0 -31 -12 -50 -27z"/>
<path d="M5070 3665 c-63 -52 -85 -60 -124 -46 -55 21 -78 13 -164 -54 -90
-71 -94 -80 -67 -155 19 -53 19 -99 1 -106 -8 -3 -29 2 -46 11 -40 21 -107 21
-185 0 -50 -13 -173 -38 -308 -62 -16 -3 -45 2 -67 12 -55 25 -70 16 -70 -40
0 -36 6 -52 26 -72 26 -26 31 -26 106 -8 20 5 34 1 54 -14 33 -26 54 -26 96
-1 19 10 67 27 108 36 41 9 84 18 96 21 15 3 29 -5 48 -29 53 -65 65 -75 118
-92 29 -9 101 -24 161 -33 104 -15 111 -15 217 6 261 52 329 94 331 208 2 80
10 96 63 121 l49 24 -6 61 c-8 81 -33 163 -58 188 -11 11 -33 19 -53 19 -19 0
-73 11 -120 25 -122 35 -141 34 -206 -20z"/>
<path d="M6278 3581 c-22 -5 -55 -24 -82 -49 -40 -37 -51 -42 -92 -42 -30 0
-54 -6 -65 -16 -10 -9 -39 -19 -64 -22 -37 -4 -51 -11 -72 -38 -32 -42 -83
-57 -179 -52 -59 3 -78 8 -113 32 -23 16 -43 27 -44 25 -2 -2 -11 -17 -21 -32
-10 -16 -33 -35 -52 -43 -27 -11 -34 -19 -29 -33 3 -10 -1 -24 -10 -31 -20
-16 -45 -103 -45 -154 0 -43 25 -105 57 -143 50 -59 247 -163 312 -165 15 -1
41 8 57 20 38 28 108 46 289 77 230 39 248 47 261 103 12 56 37 109 91 191 63
98 158 201 184 201 36 0 32 24 -11 62 -40 35 -117 68 -162 68 -10 0 -31 9 -46
20 -31 23 -108 33 -164 21z"/>
<path d="M7567 3548 c-28 -8 -37 -14 -32 -26 12 -32 170 -289 201 -328 38 -47
48 -99 59 -294 3 -63 10 -119 15 -124 17 -17 58 34 110 136 28 54 59 102 70
108 11 6 37 7 60 4 63 -10 105 37 61 68 -10 7 -31 38 -46 68 -15 30 -45 75
-66 100 -45 53 -47 67 -18 104 26 33 20 52 -20 61 -17 4 -36 15 -41 26 -8 14
-21 19 -49 19 -25 0 -41 5 -44 15 -8 20 -72 50 -135 64 -61 13 -73 13 -125 -1z"/>
<path d="M7401 3469 c-51 -33 -162 -77 -241 -95 -48 -12 -57 -11 -79 4 -52 37
-67 43 -102 37 -21 -3 -76 2 -124 10 -48 9 -97 13 -109 9 -11 -3 -44 -24 -73
-46 -29 -22 -56 -37 -62 -34 -13 8 -113 -150 -172 -271 -53 -109 -73 -130
-166 -177 -29 -15 -53 -28 -53 -30 0 -1 18 -21 40 -44 22 -22 40 -48 40 -57 0
-33 31 -75 70 -95 43 -22 65 -53 56 -77 -17 -43 72 -102 155 -103 77 0 137
-30 94 -46 -24 -10 -18 -27 25 -69 27 -26 40 -48 40 -66 0 -28 19 -39 70 -39
14 0 53 -10 85 -21 53 -19 74 -21 185 -16 140 7 197 20 285 65 97 49 134 57
215 43 91 -15 145 -37 165 -67 12 -19 24 -24 55 -24 44 0 60 18 60 67 1 66 67
263 88 263 5 0 16 -10 25 -22 14 -22 17 -22 43 -8 16 9 39 31 51 49 21 30 22
37 9 55 -19 30 -77 33 -120 7 -47 -29 -116 -28 -143 2 -29 32 -31 42 -48 215
-9 86 -21 175 -26 197 -22 80 -164 331 -220 388 -34 34 -62 33 -118 -4z"/>
<path d="M3805 3319 c-120 -14 -188 -30 -235 -54 -58 -29 -143 -120 -159 -168
-8 -24 -23 -43 -42 -52 -51 -27 -32 -49 41 -50 39 0 47 -4 65 -33 58 -95 60
-97 92 -100 17 -2 50 2 73 8 33 9 44 18 56 46 14 33 65 74 92 74 7 0 19 -15
27 -33 8 -19 21 -39 29 -46 23 -19 59 7 97 69 17 28 35 50 41 50 5 0 23 -9 39
-21 17 -12 37 -18 48 -14 21 6 101 89 101 104 0 5 -18 7 -40 4 -35 -5 -43 -2
-74 29 -33 33 -56 89 -56 136 0 13 -5 32 -10 43 -12 21 -58 23 -185 8z"/>
<path d="M4391 3131 c-18 -5 -47 -19 -64 -32 -22 -16 -43 -22 -73 -21 -39 2
-43 0 -49 -27 -3 -16 -17 -37 -31 -45 -13 -9 -24 -25 -24 -36 0 -11 -10 -24
-21 -31 -29 -15 -93 4 -114 34 l-16 22 -29 -32 c-27 -30 -50 -87 -50 -125 0
-32 -25 -19 -92 47 -74 74 -98 82 -98 32 0 -49 -27 -67 -127 -89 -48 -10 -92
-23 -97 -28 -7 -7 -3 -25 12 -55 12 -25 22 -51 22 -58 0 -6 -19 -28 -42 -48
l-41 -36 26 -48 c32 -56 33 -64 10 -80 -16 -12 -15 -16 9 -52 25 -38 78 -73
111 -73 19 0 41 -26 32 -40 -3 -5 1 -13 10 -16 11 -4 49 19 113 68 53 41 103
77 110 82 18 11 191 -74 239 -118 42 -38 66 -94 82 -193 9 -61 27 -86 171
-242 114 -124 234 -232 290 -261 19 -10 62 -23 95 -30 92 -19 130 -38 173 -86
23 -24 51 -48 64 -53 13 -5 37 -14 54 -21 23 -8 37 -24 50 -53 24 -57 41 -75
91 -97 25 -11 51 -32 63 -52 30 -49 68 -155 85 -233 14 -70 14 -70 -11 -107
-29 -42 -53 -102 -54 -136 0 -31 38 -46 64 -23 26 23 68 97 86 150 12 36 24
50 60 71 39 23 45 31 48 64 3 35 -2 43 -57 96 -34 32 -61 61 -61 65 0 16 37
76 82 133 39 48 56 62 76 62 40 0 124 -53 169 -105 38 -45 39 -46 57 -26 16
18 16 21 2 50 -24 46 -120 118 -303 227 -91 55 -172 109 -180 121 -14 20 -13
25 6 49 32 40 15 49 -97 49 -83 0 -104 3 -141 24 -97 51 -161 142 -227 320
-32 87 -82 143 -162 180 -50 24 -53 24 -66 6 -24 -33 -43 -12 -49 57 -4 34 -9
93 -13 129 -5 50 -3 72 9 90 13 21 13 30 1 79 -25 94 -26 93 145 166 24 10 50
24 57 32 18 18 18 113 0 156 -12 29 -22 36 -82 55 -65 19 -83 29 -146 74 -30
21 -109 30 -157 18z"/>
<path d="M5245 3055 c-63 -21 -179 -43 -318 -60 -91 -12 -108 -60 -56 -163 47
-94 96 -124 134 -82 10 11 27 20 37 20 10 0 36 -9 58 -20 53 -27 58 -26 62 17
3 33 8 40 41 56 20 9 37 23 38 30 0 6 1 27 2 46 2 30 10 41 60 79 121 92 95
127 -58 77z"/>
<path d="M5323 2956 c-39 -18 -57 -49 -49 -90 6 -35 0 -49 -27 -59 -10 -4 -24
-22 -32 -40 -19 -46 -41 -62 -86 -62 -27 0 -45 7 -60 24 -21 23 -23 23 -36 5
-21 -28 -16 -49 22 -95 44 -52 51 -64 59 -110 4 -22 23 -55 47 -83 33 -37 40
-52 36 -74 -3 -14 1 -39 9 -54 14 -26 94 -92 142 -117 25 -13 152 -31 152 -22
0 4 -41 64 -90 135 -93 133 -150 237 -150 276 0 12 5 30 10 41 10 17 22 19
118 19 153 -1 409 -25 462 -45 25 -9 52 -19 60 -21 10 -3 21 9 35 38 16 34 25
43 45 43 35 0 39 -32 5 -45 l-27 -10 21 -34 c24 -39 26 -73 6 -100 -26 -34
-18 -67 28 -114 l42 -43 -35 -30 -35 -29 23 -18 c33 -26 27 -66 -10 -70 -18
-2 -38 -16 -54 -38 -18 -23 -34 -34 -47 -32 -16 2 -23 -5 -29 -29 -5 -18 -17
-34 -28 -38 -12 -4 -20 -15 -20 -28 1 -49 76 -177 105 -177 7 0 36 23 63 52
42 43 56 52 85 52 55 0 128 -50 154 -106 l23 -47 74 35 c59 28 93 37 168 44
110 11 129 25 121 90 -5 37 -2 42 41 84 30 29 44 50 40 61 -3 8 -10 15 -14 15
-16 0 -68 92 -80 139 -10 41 -9 54 4 80 18 34 21 118 6 141 -9 13 -14 11 -33
-12 -13 -16 -26 -28 -29 -28 -4 0 -36 20 -71 45 -44 30 -68 55 -76 77 -25 67
-43 94 -85 124 -30 23 -46 44 -55 74 -15 52 -82 127 -122 135 -33 8 -180 -21
-207 -41 -16 -12 -16 -16 1 -80 15 -58 15 -70 4 -82 -24 -24 -47 11 -47 72 0
51 -12 76 -36 76 -6 0 -14 -9 -17 -20 -12 -47 -129 -14 -309 86 -128 71 -166
82 -215 60z"/>
<path d="M5284 2615 c-4 -15 3 -44 21 -82 41 -90 167 -272 229 -331 31 -30 56
-62 56 -71 0 -33 58 -99 131 -151 40 -27 78 -50 84 -50 9 0 11 13 8 44 -8 72
56 167 101 150 13 -5 15 1 13 33 -2 36 0 38 28 41 54 5 56 8 34 46 -13 23 -19
48 -17 76 1 30 -3 45 -14 51 -34 19 -29 109 7 109 16 0 31 43 20 60 -4 6 -20
8 -39 4 -23 -4 -50 2 -92 19 -56 24 -99 32 -303 57 -132 16 -140 15 -152 -20
-6 -16 -13 -30 -15 -30 -3 0 -18 16 -35 35 -36 41 -56 44 -65 10z"/>
<path d="M6656 2329 c-18 -14 -26 -30 -26 -52 0 -43 54 -135 91 -155 24 -14
29 -23 27 -47 -2 -24 -9 -32 -37 -41 -41 -13 -47 -23 -55 -99 -8 -76 4 -116
49 -166 29 -33 35 -47 35 -84 0 -67 24 -75 135 -47 110 28 148 28 230 -3 86
-33 174 -35 238 -7 35 15 51 31 72 70 46 84 136 115 220 75 33 -16 37 -16 52
-1 33 33 10 115 -29 105 -33 -9 -31 14 5 66 20 29 49 84 64 122 24 58 34 73
68 91 59 33 68 43 54 60 -6 8 -21 14 -32 14 -11 0 -66 21 -121 48 -93 43 -107
47 -176 47 -71 0 -79 -2 -165 -50 l-90 -50 -185 1 c-185 2 -325 19 -356 45 -8
6 -14 27 -14 45 0 40 -15 44 -54 13z"/>
<path d="M453 2205 c-20 -9 -35 -23 -39 -40 -10 -40 -50 -65 -104 -65 -47 0
-69 -14 -83 -52 -3 -10 7 -42 25 -75 18 -32 37 -85 43 -118 l11 -60 62 0 c46
0 64 -4 74 -17 15 -20 59 -38 93 -38 12 0 42 9 66 20 54 24 141 27 163 4 9 -8
16 -26 16 -39 0 -12 9 -33 19 -46 22 -28 18 -44 -35 -124 -32 -47 -38 -66 -44
-133 -4 -47 -14 -88 -24 -105 -12 -17 -16 -36 -12 -52 7 -29 -21 -102 -47
-124 -23 -19 -21 -45 6 -89 37 -59 37 -66 5 -131 l-30 -61 21 -43 c27 -56 27
-57 -10 -103 -65 -81 -58 -114 34 -160 73 -37 101 -66 163 -171 54 -91 102
-140 128 -130 8 3 24 25 37 48 31 55 60 75 134 94 79 19 300 45 393 45 93 0
129 17 187 85 53 62 108 102 159 116 27 7 37 17 42 37 12 48 42 99 100 167 65
77 66 88 14 200 l-32 71 77 109 c42 61 100 147 128 193 59 96 79 111 234 167
111 40 208 101 248 155 35 47 35 150 -1 150 -7 0 -18 -9 -24 -20 -9 -17 -21
-20 -76 -20 -39 0 -77 6 -95 15 -16 9 -46 14 -66 13 -32 -3 -37 0 -46 27 -5
17 -15 33 -21 37 -6 4 -58 8 -116 8 -219 0 -364 32 -437 95 -23 19 -53 39 -69
45 -28 11 -154 21 -489 40 -117 6 -208 17 -260 30 -60 15 -111 20 -206 19
-108 0 -134 3 -172 20 -53 24 -98 26 -144 6z"/>
<path d="M3925 1932 c-11 -2 -32 -13 -47 -24 -23 -16 -28 -27 -28 -59 0 -61
21 -182 35 -197 16 -18 59 17 85 69 61 119 38 228 -45 211z"/>
<path d="M6049 1898 c-42 -14 -54 -55 -35 -119 20 -67 21 -248 1 -303 -12 -34
-12 -44 1 -74 8 -19 14 -47 14 -63 0 -20 9 -34 33 -50 44 -30 67 -60 67 -86 0
-13 4 -23 9 -23 16 0 77 78 111 141 17 33 38 63 46 66 22 8 17 27 -28 114 -41
77 -42 83 -43 177 -1 68 -6 106 -17 127 -35 65 -111 110 -159 93z"/>
<path d="M6394 1811 c-10 -11 -29 -21 -41 -21 -44 0 -106 -94 -106 -160 0 -39
26 -97 52 -117 54 -42 140 -36 217 16 26 17 60 31 76 31 36 0 84 24 98 49 30
56 -11 165 -73 198 -20 10 -64 18 -119 21 -78 4 -88 2 -104 -17z"/>
<path d="M342 1758 c-43 -12 -48 -28 -28 -99 21 -78 20 -172 -4 -305 -22 -125
-48 -205 -91 -286 -23 -44 -29 -68 -27 -100 3 -40 5 -43 34 -44 37 -2 62 -14
92 -47 22 -23 23 -29 13 -79 -19 -97 -24 -231 -9 -250 14 -19 141 -50 167 -41
9 3 28 17 44 31 21 20 27 35 27 67 0 28 10 62 30 98 35 65 37 87 13 128 -17
29 -17 31 10 78 36 65 34 90 -12 169 -21 37 -40 71 -40 76 -1 5 20 16 46 25
l48 16 0 56 c0 35 6 63 15 74 9 11 17 49 21 94 4 66 10 85 43 139 33 53 38 67
33 103 -8 58 -40 89 -92 89 -28 0 -50 -7 -66 -21 -21 -18 -34 -20 -98 -17 -59
3 -76 8 -90 24 -22 27 -40 32 -79 22z"/>
<path d="M7503 1755 c-43 -18 -67 -56 -58 -94 4 -20 0 -41 -14 -66 -30 -56 -9
-136 44 -171 34 -22 60 -13 123 40 63 54 98 65 245 74 l112 7 -50 23 c-73 33
-122 70 -146 109 -32 51 -47 62 -83 61 -18 -1 -44 6 -57 15 -28 20 -73 21
-116 2z"/>
<path d="M9065 1759 c-22 -4 -75 -8 -118 -8 -169 -2 -428 -100 -523 -198 l-44
-47 -88 13 c-110 16 -285 26 -306 18 -38 -15 48 -87 104 -87 27 0 26 -17 -2
-26 -86 -26 -129 -47 -124 -60 7 -19 -12 -22 -184 -29 -281 -12 -406 -64 -398
-164 l3 -36 78 2 c42 2 77 -1 77 -5 0 -4 -7 -16 -15 -26 -22 -30 -18 -55 15
-92 30 -34 31 -52 5 -84 -26 -32 -26 -40 1 -65 15 -14 22 -25 16 -25 -17 0
-42 -30 -42 -52 0 -14 12 -24 40 -35 34 -14 40 -21 40 -45 0 -16 -6 -31 -15
-34 -24 -9 -18 -24 30 -75 24 -26 47 -58 50 -71 6 -23 9 -24 53 -17 76 13 81
11 131 -36 27 -25 58 -45 70 -45 14 0 28 -11 39 -32 47 -87 96 -113 175 -93
57 15 104 56 117 105 18 63 22 66 85 53 71 -15 249 -99 295 -140 67 -58 98
-64 183 -38 73 22 147 62 193 105 24 22 55 42 69 46 39 10 113 -1 134 -20 25
-23 43 -20 86 14 46 37 69 44 95 30 28 -15 25 -37 -10 -90 -53 -80 -33 -164
26 -109 37 34 54 72 54 119 0 23 5 50 10 61 13 23 54 25 90 4 35 -20 72 -19
169 7 l83 22 97 -22 c53 -12 106 -22 119 -22 12 0 71 16 130 35 138 44 186 54
304 65 62 5 108 15 127 26 29 17 33 17 60 1 26 -15 32 -16 66 -1 30 12 71 15
201 13 111 -2 168 1 175 8 18 18 1 64 -38 99 -34 32 -35 34 -23 64 18 43 7
165 -24 269 -14 46 -23 87 -20 92 3 5 14 9 25 9 30 0 59 36 59 74 0 42 -8 48
-79 57 -61 9 -71 18 -98 87 -13 35 -14 50 -5 74 14 39 5 61 -56 135 -69 83
-106 97 -217 83 -97 -12 -129 -22 -210 -66 -110 -60 -202 -73 -337 -49 -23 5
-72 0 -125 -10 -108 -21 -179 -15 -303 25 -50 17 -118 37 -153 45 -55 12 -67
20 -109 67 -38 42 -50 50 -60 40 -17 -17 -69 -15 -96 4 -13 9 -34 33 -48 55
-26 42 -35 44 -109 28z"/>
<path d="M6905 1614 c-27 -8 -81 -19 -119 -24 -53 -6 -73 -13 -86 -30 -12 -16
-32 -23 -83 -30 -64 -8 -120 -33 -147 -65 -8 -9 -30 -15 -55 -15 -59 0 -75 -8
-75 -36 0 -13 -14 -39 -30 -57 -17 -19 -33 -48 -36 -65 -5 -22 -14 -34 -35
-41 -26 -9 -29 -14 -29 -54 0 -49 37 -131 74 -166 14 -13 40 -27 58 -31 l33
-7 -42 -12 c-29 -8 -43 -17 -43 -29 0 -19 36 -83 54 -94 6 -4 59 -8 118 -8 59
0 131 -5 160 -11 68 -14 223 -89 275 -134 22 -19 43 -32 46 -29 9 10 -14 78
-38 110 -23 30 -68 63 -190 140 l-60 37 33 9 c33 9 33 9 17 34 -9 14 -15 35
-13 47 3 19 9 22 46 20 35 -2 43 1 40 14 -2 9 -18 21 -35 25 -25 6 -34 15 -38
36 -3 15 -17 50 -30 77 -30 61 -31 73 -4 130 27 57 37 63 45 28 10 -42 33 -63
70 -63 62 0 82 14 89 64 4 25 16 53 26 62 23 21 181 53 260 54 31 0 78 -7 105
-15 70 -21 121 -20 129 4 9 28 -12 70 -37 75 -13 3 -58 7 -100 11 -42 3 -114
17 -159 30 -93 28 -123 29 -194 9z"/>
<path d="M3844 1480 c-34 -17 -64 -38 -66 -48 -3 -10 3 -50 13 -88 22 -83 23
-164 4 -219 -21 -59 -19 -70 22 -104 47 -39 58 -39 90 0 14 16 32 28 39 25 35
-13 76 116 78 239 1 73 -2 87 -34 150 -42 84 -57 89 -146 45z"/>
<path d="M6485 798 c-11 -6 -44 -29 -73 -51 l-52 -40 61 -64 c50 -52 60 -68
54 -86 -16 -51 -16 -73 -1 -86 11 -9 20 -10 36 -1 31 17 46 7 75 -50 14 -27
29 -50 33 -50 5 0 16 17 26 37 l18 38 19 -24 c11 -13 25 -21 34 -17 24 9 18
71 -16 148 -17 38 -28 72 -25 75 3 3 28 -4 56 -16 60 -26 103 -25 108 3 3 15
0 18 -18 13 -16 -4 -33 4 -63 32 -68 61 -174 127 -232 144 -11 4 -29 1 -40 -5z"/>
<path d="M4720 745 c-9 -11 -23 -15 -41 -11 -16 3 -34 -1 -45 -10 -18 -13 -16
-16 30 -60 53 -48 216 -134 256 -134 32 0 84 -32 105 -64 9 -13 29 -29 45 -36
25 -10 34 -10 55 4 34 22 40 56 21 114 -17 52 -12 82 28 157 33 62 37 60 -145
41 -82 -9 -142 -10 -175 -5 -120 22 -119 22 -134 4z"/>
<path d="M6890 92 c0 -12 45 -27 109 -37 24 -4 64 -18 89 -31 82 -43 216 -23
159 24 -30 25 -357 65 -357 44z"/>
</g>
</svg>
