<?xml version="1.0" standalone="no"?>
<!DOCTYPE svg PUBLIC "-//W3C//DTD SVG 20010904//EN"
 "http://www.w3.org/TR/2001/REC-SVG-20010904/DTD/svg10.dtd">
<svg version="1.0" xmlns="http://www.w3.org/2000/svg"
 width="1280.000000pt" height="878.000000pt" viewBox="0 0 1280.000000 878.000000"
 preserveAspectRatio="xMidYMid meet">
<g transform="translate(0.000000,878.000000) scale(0.100000,-0.100000)"
fill="#000000" stroke="none">
<path d="M76 8704 c-9 -8 -16 -20 -16 -25 0 -54 132 -206 206 -239 23 -10 54
-36 70 -57 16 -21 41 -53 56 -71 15 -18 28 -43 28 -56 0 -18 11 -27 53 -44 72
-30 108 -61 112 -97 2 -17 16 -65 31 -108 25 -69 32 -81 65 -98 21 -10 41 -28
44 -39 4 -12 27 -44 51 -71 24 -27 44 -55 44 -62 0 -7 16 -37 35 -67 19 -30
35 -67 35 -81 0 -14 10 -40 23 -57 75 -102 101 -132 133 -153 19 -13 44 -41
55 -61 13 -26 45 -55 106 -95 49 -32 120 -91 159 -130 70 -72 92 -88 80 -57
-11 28 4 34 39 17 33 -16 36 -16 49 3 14 18 15 18 45 -10 17 -16 33 -27 37
-24 8 9 20 181 18 268 -1 49 3 83 12 97 20 32 17 46 -12 74 -14 13 -30 34 -35
46 -9 24 -60 39 -105 30 -22 -4 -25 -1 -21 15 4 13 -3 27 -19 40 -13 12 -26
37 -29 57 -14 82 -13 81 -53 81 -40 0 -102 32 -102 53 0 7 6 19 13 26 10 11
10 14 0 18 -21 8 -15 30 14 51 31 23 27 46 -12 64 -23 10 -33 8 -77 -14 -48
-25 -78 -27 -78 -7 0 5 9 9 21 9 25 0 59 17 59 30 0 5 -17 18 -38 29 -24 13
-31 20 -18 21 15 0 16 3 6 15 -17 20 -40 19 -40 -2 -1 -15 -4 -14 -20 6 -11
13 -20 29 -20 36 0 19 -58 65 -80 65 -11 0 -25 10 -31 23 -30 58 -79 87 -79
46 0 -19 -1 -20 -28 -3 -16 9 -37 32 -47 50 -10 18 -26 36 -35 39 -10 3 -20
14 -23 24 -2 11 -22 31 -43 45 -141 96 -204 145 -204 160 0 7 -11 23 -25 36
-14 13 -25 29 -25 35 0 6 -13 23 -28 38 -25 24 -37 27 -132 33 -93 6 -110 10
-149 35 -52 34 -54 34 -75 13z"/>
<path d="M4720 8519 c0 -11 5 -17 10 -14 6 3 10 13 10 21 0 8 -4 14 -10 14 -5
0 -10 -9 -10 -21z"/>
<path d="M3092 8507 c-6 -7 -14 -33 -17 -57 -14 -108 -15 -110 -47 -126 -26
-13 -29 -20 -24 -45 4 -23 1 -32 -19 -45 -16 -11 -25 -26 -25 -43 0 -14 -9
-41 -20 -58 -17 -29 -25 -33 -63 -33 -24 0 -52 -7 -63 -15 -27 -20 -42 -19
-97 11 -39 20 -57 24 -88 19 -38 -7 -63 -23 -71 -45 -5 -17 -79 -39 -130 -40
-26 0 -58 -4 -73 -10 -19 -7 -33 -6 -53 4 -36 19 -108 95 -117 124 -3 12 -10
22 -15 22 -16 0 -70 -74 -70 -97 0 -12 -5 -25 -11 -29 -16 -9 -2 -104 18 -126
12 -13 14 -28 9 -63 -6 -36 -4 -46 8 -51 9 -3 16 -15 16 -25 0 -11 7 -19 16
-19 13 0 15 -7 11 -30 -7 -32 2 -37 32 -18 15 9 23 9 36 -2 14 -11 16 -24 11
-61 -4 -26 -3 -50 2 -53 5 -3 15 -37 22 -75 11 -60 16 -71 34 -71 81 -4 117
-4 156 0 l45 5 3 -42 c3 -42 22 -58 38 -32 4 7 22 9 48 5 37 -6 45 -3 71 24
27 28 30 29 51 15 13 -8 32 -15 44 -15 11 0 20 -7 20 -15 0 -11 12 -14 50 -12
56 2 90 -21 92 -64 3 -48 14 -49 100 -10 82 38 128 82 128 122 0 9 7 19 15 23
8 3 15 16 15 30 0 13 7 26 15 30 17 6 21 46 4 46 -7 0 -9 10 -7 25 3 14 1 28
-3 31 -5 3 2 20 14 37 13 18 27 40 30 49 4 10 13 15 24 12 11 -3 28 5 42 20
14 14 30 26 37 26 6 0 17 7 24 15 10 13 10 19 -5 35 -19 21 -15 75 12 141 17
44 63 81 84 68 19 -12 90 -11 109 1 17 11 -2 30 -93 92 -50 35 -66 63 -48 81
6 6 11 17 11 25 0 16 -56 101 -80 122 -10 8 -20 29 -22 47 -4 29 -2 31 34 37
44 7 48 18 13 34 -14 7 -25 20 -25 31 0 27 -18 31 -140 31 -76 0 -111 -4 -118
-13z"/>
<path d="M4570 8411 c0 -5 5 -13 10 -16 6 -3 10 -2 10 4 0 5 -4 13 -10 16 -5
3 -10 2 -10 -4z"/>
<path d="M140 8297 c0 -14 50 -47 72 -47 15 1 -47 60 -62 60 -6 0 -10 -6 -10
-13z"/>
<path d="M4953 8248 c-23 -27 -19 -58 8 -58 22 0 45 41 36 64 -9 22 -20 20
-44 -6z"/>
<path d="M4867 8176 c-30 -32 -52 -117 -38 -145 6 -11 8 -26 5 -34 -3 -9 2
-29 10 -46 9 -16 16 -47 16 -68 0 -33 7 -46 41 -78 l42 -40 -27 46 c-18 32
-26 60 -26 94 l0 47 46 -7 c26 -3 53 -9 60 -12 29 -11 12 19 -21 38 -19 12
-35 23 -35 26 0 2 16 19 35 37 42 40 47 76 10 76 -18 0 -35 -13 -62 -50 -20
-27 -41 -50 -45 -50 -19 0 -16 22 7 56 27 40 31 59 14 70 -6 3 -9 19 -5 35 7
35 2 36 -27 5z"/>
<path d="M983 8174 c-7 -18 11 -39 26 -30 17 11 13 46 -4 46 -9 0 -18 -7 -22
-16z"/>
<path d="M4425 8097 c-16 -17 -48 -44 -71 -58 -38 -25 -46 -27 -145 -24 -57 1
-120 8 -139 14 -19 6 -51 11 -70 11 -20 0 -53 9 -75 20 -55 28 -69 25 -99 -20
-22 -34 -30 -39 -45 -31 -36 20 -76 -50 -85 -149 -6 -54 -12 -78 -26 -87 -28
-20 -50 -77 -50 -131 0 -28 -4 -53 -9 -57 -5 -3 -12 -18 -16 -34 -3 -16 -17
-39 -30 -51 -14 -13 -21 -28 -18 -34 4 -5 6 -24 5 -41 -3 -43 11 -59 54 -59
36 -1 37 -2 50 -51 12 -51 8 -95 -19 -188 -9 -33 -8 -40 9 -58 17 -17 27 -18
74 -11 35 5 54 13 52 21 -3 16 -3 34 3 184 3 101 1 135 -10 157 -14 27 -14 30
13 48 39 28 71 36 87 22 19 -16 19 -69 0 -94 -19 -25 -6 -47 51 -87 47 -32 49
-39 28 -92 -7 -20 22 -47 52 -47 17 0 27 8 33 24 11 27 29 36 76 36 53 0 53
26 0 72 -46 40 -54 63 -34 99 12 24 -12 61 -98 147 -59 59 -64 71 -30 65 15
-3 38 5 62 21 21 14 43 26 50 26 6 0 31 21 54 46 38 42 45 46 75 40 27 -5 35
-3 40 11 10 24 -22 46 -54 38 -14 -4 -26 -11 -28 -16 -2 -5 -23 -9 -47 -9 -24
0 -47 -5 -50 -11 -4 -6 -27 -9 -51 -8 -39 3 -48 -1 -82 -34 -47 -45 -96 -52
-106 -13 -3 13 -21 35 -40 50 -40 30 -52 69 -36 123 22 78 16 76 242 79 167 2
205 0 225 -13 18 -12 37 -14 85 -9 34 4 69 11 79 16 30 17 131 149 125 165 -9
23 -28 18 -61 -18z"/>
<path d="M1080 8110 c0 -12 42 -31 50 -23 6 5 -30 33 -42 33 -4 0 -8 -5 -8
-10z"/>
<path d="M355 8090 c-7 -12 65 -110 81 -110 6 0 14 9 17 21 4 14 -5 32 -30 60
-35 39 -56 48 -68 29z"/>
<path d="M1350 8040 c0 -5 7 -10 15 -10 8 0 15 5 15 10 0 6 -7 10 -15 10 -8 0
-15 -4 -15 -10z"/>
<path d="M1400 8040 c0 -11 40 -34 47 -26 3 3 3 12 0 21 -7 16 -47 21 -47 5z"/>
<path d="M1437 7883 c-4 -3 -7 -13 -7 -21 0 -8 -7 -20 -17 -27 -18 -13 -10
-35 14 -35 11 0 14 6 10 21 -4 15 0 23 14 26 10 3 19 9 19 13 0 12 -26 30 -33
23z"/>
<path d="M5284 7866 c-31 -23 -6 -37 54 -29 55 6 64 16 33 33 -28 14 -64 13
-87 -4z"/>
<path d="M4815 7820 c-9 -15 12 -47 36 -53 16 -4 19 -3 10 6 -6 6 -11 21 -11
34 0 23 -23 32 -35 13z"/>
<path d="M5499 7800 c-24 -16 -56 -30 -71 -30 -22 0 -31 -7 -42 -35 -14 -33
-42 -52 -30 -20 8 19 -23 32 -39 16 -19 -19 50 -71 84 -64 33 6 77 -21 85 -52
13 -52 36 -60 165 -58 65 1 121 -2 124 -6 3 -5 2 -16 -1 -25 -5 -12 -18 -15
-64 -11 -48 4 -60 1 -75 -15 -14 -15 -29 -19 -71 -17 -29 1 -55 -1 -59 -5 -11
-10 4 -28 23 -28 9 -1 37 -19 62 -40 41 -36 44 -42 32 -61 -11 -17 -11 -25 3
-45 16 -25 23 -28 50 -18 17 7 48 63 59 107 9 40 26 33 19 -8 -5 -33 -3 -37
26 -48 17 -6 31 -18 31 -26 0 -11 11 -13 50 -8 49 6 50 6 44 -18 -5 -19 0 -27
25 -39 16 -9 49 -16 73 -17 24 0 57 -5 74 -12 17 -7 65 -25 105 -40 100 -38
189 -85 216 -114 12 -13 27 -41 33 -63 12 -45 46 -89 84 -109 35 -19 33 -31
-5 -31 -27 0 -30 -2 -19 -15 7 -8 20 -15 28 -15 12 0 13 -3 4 -12 -8 -8 -7
-18 5 -39 14 -24 15 -32 4 -53 -23 -43 -10 -53 56 -46 32 4 69 10 81 14 15 5
22 3 22 -6 0 -7 32 -45 70 -83 l71 -70 127 -6 c116 -6 131 -5 175 15 26 11 47
27 47 34 0 22 -20 52 -35 52 -20 0 -30 21 -14 31 8 5 29 9 46 9 28 0 32 3 30
23 -2 19 2 22 27 19 26 -3 28 -1 23 20 -6 22 -5 23 61 22 37 0 85 -8 107 -16
22 -8 58 -18 80 -22 69 -12 75 -16 116 -82 23 -35 49 -70 59 -77 11 -7 24 -25
29 -40 6 -15 19 -30 28 -34 10 -3 35 -23 55 -43 38 -40 37 -39 193 -58 115
-15 167 -28 177 -46 6 -10 23 -16 48 -16 41 0 61 14 35 24 -8 3 -14 11 -13 17
2 6 -15 18 -37 25 -22 8 -47 22 -55 30 -13 14 -13 17 3 28 16 12 16 14 1 20
-8 3 -28 6 -44 6 -38 0 -62 25 -54 56 6 23 4 24 -45 24 -47 0 -53 3 -63 28 -7
15 -20 38 -30 51 -10 13 -18 32 -18 43 0 12 -12 24 -32 33 -18 8 -46 28 -62
45 -16 16 -33 30 -36 30 -4 0 -17 23 -30 51 -26 61 -18 72 45 63 27 -3 46 0
60 9 19 14 19 15 -8 55 -21 32 -35 43 -64 48 -21 4 -65 20 -98 36 -33 15 -71
28 -86 28 -36 0 -49 18 -49 67 0 49 -21 76 -76 99 -19 8 -34 18 -34 22 0 16
-82 62 -109 62 -15 0 -45 13 -67 29 -26 20 -66 35 -113 45 -39 8 -117 36 -171
61 -55 25 -114 45 -133 45 -18 0 -37 4 -42 9 -6 5 -39 15 -75 21 -83 15 -92
18 -230 79 -62 28 -120 51 -127 51 -29 0 -93 -41 -93 -59 0 -27 -24 -43 -75
-49 -25 -2 -45 -8 -45 -13 0 -13 -109 -138 -131 -150 -11 -6 -34 -7 -50 -4
-31 7 -58 52 -74 120 l-7 30 -12 -30 -13 -30 -19 35 c-14 25 -19 57 -20 115
-1 44 -5 95 -9 113 -7 30 -10 32 -49 32 -26 0 -60 10 -96 30 -71 38 -106 38
-161 0z m1546 -1130 c3 -5 -1 -10 -9 -10 -9 0 -16 5 -16 10 0 6 4 10 9 10 6 0
13 -4 16 -10z"/>
<path d="M6028 7770 c12 -5 27 -21 32 -35 7 -19 17 -25 40 -25 16 0 30 3 29 8
-1 15 -55 50 -89 56 -28 5 -31 4 -12 -4z"/>
<path d="M564 7726 c-7 -19 21 -71 48 -90 46 -33 51 -11 12 58 -26 46 -50 59
-60 32z"/>
<path d="M4152 7698 c-15 -15 -16 -38 -1 -38 12 0 38 29 39 43 0 11 -25 8 -38
-5z"/>
<path d="M4220 7686 c0 -9 5 -16 10 -16 6 0 10 4 10 9 0 6 -4 13 -10 16 -5 3
-10 -1 -10 -9z"/>
<path d="M4816 7672 c-10 -17 14 -35 52 -38 49 -4 61 9 30 30 -24 17 -73 22
-82 8z"/>
<path d="M1621 7643 c-7 -14 -12 -15 -25 -4 -17 14 -36 7 -36 -14 0 -8 -8 -19
-17 -24 -16 -9 -16 -12 -3 -21 8 -5 29 -10 47 -10 29 0 33 -4 45 -47 12 -42
20 -51 58 -70 25 -12 48 -22 51 -22 4 -1 9 15 11 35 4 32 1 37 -28 49 -28 11
-35 22 -49 74 -18 62 -38 82 -54 54z"/>
<path d="M4370 7625 c-25 -30 1 -39 75 -25 76 14 74 25 -6 35 -44 6 -58 4 -69
-10z"/>
<path d="M6063 7630 c25 -16 146 -26 132 -12 -5 6 -41 14 -80 17 -55 5 -66 4
-52 -5z"/>
<path d="M5193 7620 c-30 -12 -29 -18 3 -31 35 -13 64 -3 64 22 0 21 -28 25
-67 9z"/>
<path d="M4573 7603 c9 -2 23 -2 30 0 6 3 -1 5 -18 5 -16 0 -22 -2 -12 -5z"/>
<path d="M7664 7585 c-17 -13 -14 -14 39 -15 61 0 77 14 26 24 -42 8 -42 8
-65 -9z"/>
<path d="M700 7575 c0 -18 19 -40 26 -32 4 4 0 15 -9 24 -9 10 -17 13 -17 8z"/>
<path d="M4601 7554 c0 -11 3 -14 6 -6 3 7 2 16 -1 19 -3 4 -6 -2 -5 -13z"/>
<path d="M8172 7518 c3 -7 15 -15 27 -16 16 -3 22 1 19 10 -3 7 -15 15 -27 16
-16 3 -22 -1 -19 -10z"/>
<path d="M1902 7498 c-7 -7 -12 -27 -12 -45 0 -31 2 -33 33 -33 36 0 57 15 57
41 0 31 -57 58 -78 37z"/>
<path d="M760 7490 c0 -5 7 -10 16 -10 8 0 12 5 9 10 -3 6 -10 10 -16 10 -5 0
-9 -4 -9 -10z"/>
<path d="M5101 7461 c-8 -5 -48 -7 -90 -4 -64 5 -80 3 -94 -11 -9 -10 -17 -25
-16 -34 0 -11 2 -12 6 -4 7 18 26 15 46 -8 20 -23 35 -25 61 -5 16 12 23 12
52 -2 27 -13 38 -14 59 -5 22 10 35 7 99 -23 41 -19 79 -35 85 -35 14 0 14 37
0 45 -5 4 -14 18 -19 30 -7 17 -20 26 -47 30 -21 3 -53 13 -71 21 -38 16 -51
17 -71 5z"/>
<path d="M8350 7455 c0 -8 104 -75 117 -75 30 0 9 22 -47 50 -60 30 -70 34
-70 25z"/>
<path d="M800 7441 c0 -5 7 -14 15 -21 16 -14 18 -10 9 14 -6 17 -24 22 -24 7z"/>
<path d="M4643 7424 c-34 -8 -36 -33 -4 -65 32 -32 66 -37 120 -18 35 13 38
24 12 58 -18 24 -78 35 -128 25z"/>
<path d="M3147 7383 c-4 -3 -7 -26 -7 -50 0 -61 24 -52 28 10 3 43 -5 57 -21
40z"/>
<path d="M4915 7351 c-6 -11 9 -23 19 -14 9 9 7 23 -3 23 -6 0 -12 -4 -16 -9z"/>
<path d="M8550 7300 c6 -12 14 -40 18 -63 9 -53 35 -61 51 -17 13 39 2 64 -39
85 -38 20 -43 19 -30 -5z"/>
<path d="M4170 7280 c0 -5 5 -10 10 -10 6 0 10 5 10 10 0 6 -4 10 -10 10 -5 0
-10 -4 -10 -10z"/>
<path d="M8442 7263 l-43 -4 7 -48 6 -48 -34 -7 c-25 -5 -41 -16 -59 -43 -23
-35 -27 -38 -77 -39 -42 -1 -56 3 -67 18 -13 19 -13 19 -19 0 -9 -28 -64 -36
-148 -21 -50 9 -72 9 -80 1 -16 -16 -3 -39 29 -46 15 -4 39 -15 53 -24 14 -9
35 -15 47 -13 13 1 33 -5 45 -13 12 -9 39 -16 60 -16 54 0 175 48 199 79 15
18 33 27 62 31 41 5 42 6 41 42 -1 28 3 39 17 43 32 11 41 40 25 80 -8 19 -16
34 -18 33 -2 -1 -22 -3 -46 -5z"/>
<path d="M4149 7206 c-8 -16 -17 -22 -30 -19 -30 8 -49 -15 -49 -58 0 -32 3
-39 20 -39 13 0 20 -7 20 -20 0 -27 12 -25 48 8 27 26 28 29 14 50 -13 20 -13
24 3 41 11 13 14 27 10 40 -8 28 -23 27 -36 -3z m-20 -88 c-11 -19 -14 -20
-17 -6 -2 9 2 27 9 40 11 19 14 20 17 6 2 -9 -2 -27 -9 -40z"/>
<path d="M4000 7111 c0 -12 5 -21 10 -21 6 0 10 6 10 14 0 8 -4 18 -10 21 -5
3 -10 -3 -10 -14z"/>
<path d="M7730 7100 c0 -5 5 -10 11 -10 5 0 7 5 4 10 -3 6 -8 10 -11 10 -2 0
-4 -4 -4 -10z"/>
<path d="M5856 7061 c-22 -25 -18 -89 7 -105 25 -16 39 9 34 62 -6 55 -18 68
-41 43z"/>
<path d="M7842 7059 c2 -7 10 -15 17 -17 8 -3 12 1 9 9 -2 7 -10 15 -17 17 -8
3 -12 -1 -9 -9z"/>
<path d="M5594 7049 c-3 -6 -1 -16 5 -22 8 -8 11 -5 11 11 0 24 -5 28 -16 11z"/>
<path d="M1799 6999 c-8 -5 -47 -6 -86 -3 l-73 7 -6 -31 c-4 -17 -15 -39 -25
-48 -25 -22 -24 -44 1 -44 11 0 40 -5 65 -12 43 -12 46 -14 43 -43 l-3 -30 70
-6 c39 -3 92 -15 119 -27 52 -24 66 -25 171 -16 65 6 78 3 165 -30 94 -37 203
-59 271 -57 20 1 56 -3 80 -8 30 -7 56 -6 86 2 37 9 48 8 90 -10 26 -12 62
-24 78 -28 17 -3 38 -8 48 -11 16 -5 17 -3 7 15 -7 13 -9 39 -5 65 9 59 -8 68
-109 60 -91 -8 -129 9 -124 54 3 25 6 27 48 24 49 -4 134 23 124 39 -9 15
-133 10 -170 -7 -31 -15 -35 -15 -49 0 -9 9 -27 16 -39 16 -13 0 -43 7 -66 15
-23 8 -52 12 -64 9 -14 -3 -28 2 -40 15 -24 27 -53 27 -61 1 -15 -46 -28 -50
-158 -44 -124 7 -157 15 -157 38 0 23 -34 43 -82 48 -25 3 -59 14 -75 25 -39
27 -57 33 -74 22z"/>
<path d="M3792 6985 c0 -16 2 -22 5 -12 2 9 2 23 0 30 -3 6 -5 -1 -5 -18z"/>
<path d="M5807 6929 c-7 -53 5 -70 33 -44 25 23 25 28 -3 61 l-24 27 -6 -44z"/>
<path d="M5395 6783 c-24 -36 -34 -83 -17 -83 12 0 61 67 68 94 10 40 -20 33
-51 -11z"/>
<path d="M6418 6774 c-26 -14 -78 -89 -78 -112 0 -8 18 -12 48 -12 43 0 54 5
90 40 61 57 56 101 -11 100 -12 -1 -34 -7 -49 -16z"/>
<path d="M4668 6754 c-3 -3 -19 -7 -34 -8 -16 -2 -32 -4 -36 -5 -5 0 -8 -7 -8
-14 0 -10 13 -12 53 -7 57 6 80 16 72 31 -7 10 -38 12 -47 3z"/>
<path d="M5150 6715 c0 -8 5 -15 10 -15 6 0 10 7 10 15 0 8 -4 15 -10 15 -5 0
-10 -7 -10 -15z"/>
<path d="M2955 6681 l-50 -6 42 -27 c23 -15 46 -35 51 -44 8 -15 13 -14 46 12
20 16 36 31 36 34 0 8 -56 40 -67 38 -4 0 -30 -4 -58 -7z"/>
<path d="M3405 6676 c-19 -14 -18 -15 13 -33 17 -10 32 -24 32 -30 0 -21 -55
-15 -75 7 -26 29 -79 26 -111 -5 -59 -59 3 -81 129 -46 42 11 89 18 112 15 50
-6 80 14 70 46 -5 17 -12 20 -30 16 -13 -3 -27 -1 -31 5 -3 6 -15 9 -25 6 -10
-3 -28 4 -40 14 -26 23 -21 22 -44 5z"/>
<path d="M4377 6673 c-19 -18 -5 -33 31 -33 43 0 68 13 58 29 -8 12 -78 15
-89 4z"/>
<path d="M3177 6662 c-18 -4 -59 -76 -49 -86 8 -9 80 -7 86 2 2 4 7 23 11 43
6 30 4 37 -12 41 -10 2 -26 2 -36 0z"/>
<path d="M3734 6646 c-35 -15 -49 -40 -31 -54 18 -14 183 -22 252 -13 96 14
179 32 190 42 5 6 5 13 -3 21 -9 9 -19 7 -42 -10 -32 -24 -55 -28 -66 -11 -4
7 -24 9 -53 6 -32 -4 -64 0 -101 13 -65 23 -104 24 -146 6z"/>
<path d="M4242 6646 c-18 -6 -30 -15 -26 -18 6 -7 64 18 64 27 0 3 -1 5 -2 4
-2 0 -18 -6 -36 -13z"/>
<path d="M4317 6654 c-8 -8 1 -24 13 -24 4 0 10 7 14 15 5 15 -14 21 -27 9z"/>
<path d="M4725 6640 c-16 -5 -74 -13 -127 -18 -95 -8 -98 -10 -142 -50 -26
-24 -62 -46 -87 -52 -53 -15 -112 -70 -108 -102 2 -13 0 -29 -5 -36 -15 -24 9
-35 40 -19 16 8 43 17 59 21 17 4 59 36 96 71 54 52 76 66 125 80 70 19 206
85 212 103 4 13 -17 14 -63 2z"/>
<path d="M8564 6545 c10 -8 23 -12 28 -9 14 9 -2 24 -25 24 -21 -1 -21 -1 -3
-15z"/>
<path d="M8190 6511 c0 -6 5 -13 10 -16 6 -3 10 1 10 9 0 9 -4 16 -10 16 -5 0
-10 -4 -10 -9z"/>
<path d="M3585 6487 c-22 -17 -12 -37 20 -37 37 0 75 -18 117 -55 44 -40 66
-43 99 -15 l24 20 -32 27 c-79 68 -89 73 -150 73 -34 0 -67 -6 -78 -13z"/>
<path d="M8242 6488 c6 -16 36 -34 44 -25 9 9 -15 37 -33 37 -8 0 -13 -5 -11
-12z"/>
<path d="M8315 6404 c22 -16 35 -18 35 -5 0 5 -12 11 -27 14 -26 5 -26 4 -8
-9z"/>
<path d="M4170 6307 c-27 -17 -31 -23 -17 -25 20 -4 67 23 67 38 0 15 -11 12
-50 -13z"/>
<path d="M7024 6282 c-14 -11 -25 -40 -34 -87 -9 -49 -20 -77 -36 -92 -27 -25
-31 -55 -9 -73 13 -11 14 -15 2 -29 -26 -29 -41 -206 -25 -287 6 -31 3 -56
-11 -96 -10 -30 -22 -74 -26 -99 -4 -24 -25 -83 -48 -130 -41 -85 -41 -86
-100 -109 -53 -20 -61 -21 -68 -7 -5 8 -29 25 -53 37 -27 12 -53 35 -65 55
-15 26 -28 35 -58 40 -57 10 -88 24 -115 52 -28 30 -129 83 -158 83 -12 0 -42
20 -68 43 -26 24 -68 58 -94 76 -27 17 -48 38 -48 45 0 7 11 28 25 47 42 58
57 97 45 120 -6 11 -8 29 -5 39 8 24 53 48 78 43 12 -3 17 2 17 19 0 13 13 39
29 58 29 36 31 60 4 60 -9 0 -21 7 -27 16 -17 23 -45 8 -43 -24 2 -34 -32 -45
-40 -13 -3 12 -13 21 -25 21 -15 0 -18 4 -12 22 6 21 5 22 -11 8 -9 -8 -34
-20 -53 -27 -31 -10 -39 -10 -55 5 -11 10 -33 16 -58 15 -25 -1 -53 6 -72 17
-18 11 -44 20 -58 20 -30 0 -81 23 -99 45 -7 9 -21 13 -31 10 -11 -4 -26 2
-38 14 -20 20 -80 29 -94 15 -13 -13 23 -34 57 -34 40 0 56 -20 56 -69 0 -21
-5 -31 -15 -31 -8 0 -15 -6 -15 -12 0 -14 -109 -17 -170 -4 -30 6 -38 4 -53
-18 -11 -14 -25 -22 -33 -19 -8 3 -14 -1 -14 -11 0 -9 -6 -16 -13 -16 -23 0
-57 -49 -57 -80 0 -23 -6 -33 -24 -40 -15 -5 -27 -20 -31 -38 -3 -16 -17 -40
-31 -52 -29 -28 -32 -60 -5 -60 24 0 36 -41 15 -53 -8 -4 -12 -12 -9 -18 4 -5
-1 -9 -9 -9 -8 0 -18 5 -21 11 -4 6 -14 8 -22 5 -8 -3 -22 -2 -31 3 -41 21
-69 21 -93 0 -13 -11 -23 -29 -21 -39 3 -19 -24 -35 -33 -20 -3 5 -1 27 5 47
11 37 11 39 -36 88 -47 49 -129 99 -146 89 -4 -3 -8 -11 -8 -18 0 -8 -7 -19
-16 -27 -13 -10 -17 -10 -24 0 -10 17 -52 -9 -68 -43 -9 -20 -18 -23 -67 -25
-48 -1 -60 -6 -80 -29 -28 -31 -31 -54 -10 -72 22 -18 18 -33 -6 -27 -26 7
-76 -10 -83 -29 -3 -7 4 -23 16 -34 19 -18 20 -21 6 -37 -8 -10 -13 -24 -11
-31 4 -11 -5 -12 -43 -7 -27 4 -54 12 -60 17 -18 13 -16 -71 2 -96 19 -28 18
-39 -4 -32 -13 5 -21 -1 -28 -21 l-10 -28 -19 30 c-10 17 -29 47 -43 67 l-25
38 -22 -23 c-12 -12 -36 -34 -54 -49 -35 -30 -35 -28 -19 -147 2 -19 -5 -30
-31 -48 -19 -13 -48 -47 -63 -76 -38 -68 -74 -105 -123 -128 -54 -24 -183 -48
-221 -42 -24 4 -37 -1 -55 -20 -16 -16 -40 -26 -71 -31 -26 -3 -66 -17 -87
-32 -36 -23 -45 -25 -104 -19 -57 6 -69 4 -116 -19 -28 -15 -69 -42 -90 -61
-21 -19 -63 -46 -92 -59 -59 -26 -92 -56 -108 -98 -7 -19 -18 -28 -32 -28 -19
0 -21 5 -17 45 2 25 0 45 -5 45 -4 0 -18 -25 -32 -56 -18 -41 -22 -61 -15 -74
18 -34 11 -94 -14 -129 -36 -49 -42 -100 -17 -147 12 -21 21 -43 21 -49 0 -5
20 -39 45 -75 42 -61 44 -67 34 -102 -11 -42 -24 -49 -34 -18 -3 11 -13 20
-21 20 -12 0 -12 -4 -4 -21 9 -15 8 -24 -1 -35 -17 -21 -24 -18 -42 21 -9 19
-21 35 -27 35 -20 0 -10 -26 26 -65 54 -60 94 -135 94 -176 0 -22 9 -48 26
-70 14 -19 35 -52 45 -74 11 -22 26 -51 34 -65 8 -14 15 -50 15 -80 0 -77 15
-123 68 -215 44 -75 47 -84 45 -145 -1 -36 -2 -89 -2 -117 0 -43 -5 -58 -26
-79 -18 -17 -34 -24 -53 -22 -23 2 -27 -1 -30 -23 -2 -14 2 -37 7 -52 8 -21
17 -27 40 -27 19 0 43 -11 64 -30 54 -47 112 -66 219 -73 54 -3 100 -2 103 3
3 4 17 11 32 15 15 3 47 20 71 36 23 16 54 29 68 29 16 0 43 15 70 39 41 36
49 39 131 47 133 13 216 12 239 -2 15 -9 33 -9 72 -2 39 8 60 8 79 -1 22 -10
33 -8 72 11 36 18 52 34 71 73 21 41 32 51 65 61 22 6 84 32 137 58 83 39 104
45 137 40 65 -10 208 14 304 52 106 43 163 52 333 56 l131 3 55 -37 c48 -32
61 -36 86 -29 22 7 41 4 72 -10 23 -10 60 -19 81 -19 30 0 42 -5 55 -25 9 -14
25 -25 35 -25 25 0 32 -16 17 -39 -10 -17 -9 -23 6 -40 11 -12 30 -21 43 -21
18 0 28 -9 38 -32 7 -18 25 -44 39 -57 35 -33 52 -92 31 -107 -14 -10 -11 -15
17 -32 42 -26 88 -38 88 -23 0 6 -4 11 -10 11 -23 0 -7 29 43 76 62 60 109 94
131 94 9 0 25 18 36 40 11 22 29 46 40 52 11 7 20 21 20 30 0 23 9 23 26 1 16
-21 18 -53 4 -53 -6 0 -9 -13 -8 -30 1 -18 -6 -38 -19 -52 -34 -38 -44 -66
-38 -102 9 -46 -8 -76 -44 -76 -24 0 -41 -15 -41 -35 0 -8 105 8 116 17 7 5
15 25 19 44 9 48 26 84 40 84 17 0 55 -86 55 -126 0 -25 -8 -42 -27 -61 l-28
-26 55 7 c30 4 65 14 78 22 28 19 52 12 52 -15 0 -11 12 -34 26 -51 15 -17 24
-33 21 -37 -4 -3 1 -19 9 -36 11 -21 14 -44 10 -76 -7 -53 -8 -50 66 -118 40
-37 65 -53 85 -53 15 0 46 -11 67 -25 26 -16 45 -21 55 -16 23 12 115 -7 194
-40 37 -16 76 -29 86 -29 10 0 36 14 57 31 22 17 51 36 66 41 16 6 25 15 22
23 -7 17 30 37 58 33 30 -4 33 -23 8 -48 -28 -28 -17 -38 19 -17 38 22 51 21
51 -4 0 -13 11 -25 33 -35 43 -20 71 -37 92 -54 14 -12 18 -12 26 1 6 10 3 15
-12 17 -31 5 -16 27 19 29 32 1 82 28 158 84 49 36 96 48 189 49 53 0 82 6
115 22 45 23 45 23 46 78 1 30 7 75 13 100 7 25 17 61 22 80 5 19 26 58 48 86
21 29 42 67 46 85 4 19 19 54 35 79 15 25 36 67 46 93 21 53 59 96 122 141 23
17 42 37 42 46 0 9 18 52 40 95 29 58 40 91 40 124 0 25 11 82 25 126 14 44
25 88 25 97 0 9 9 33 21 52 22 37 19 84 -7 135 -8 14 -14 33 -14 41 0 8 -11
28 -25 44 -16 19 -23 36 -19 45 11 23 11 174 1 191 -5 10 -1 32 12 63 12 27
20 61 20 75 -1 20 -3 22 -6 7 -2 -11 -12 -30 -21 -43 -15 -20 -22 -22 -44 -13
-15 6 -34 24 -43 40 -8 17 -26 38 -39 46 -13 9 -36 34 -50 55 -15 22 -34 40
-44 40 -26 1 -76 45 -67 61 6 9 3 11 -8 6 -24 -9 -51 36 -52 87 -3 76 -3 76
-33 76 -16 0 -37 9 -47 20 -22 24 -35 26 -35 4 0 -24 -42 -13 -57 16 -7 14
-20 52 -30 85 -11 39 -30 74 -55 101 -27 30 -37 48 -35 69 2 27 -4 32 -53 56
-30 14 -68 30 -85 35 -17 5 -36 21 -43 36 -10 21 -24 29 -68 38 -61 13 -116
53 -119 87 0 11 -11 32 -23 47 -17 23 -20 36 -15 72 6 46 -15 164 -30 164 -20
0 -57 51 -57 79 0 80 -63 235 -108 267 -12 8 -22 22 -22 30 0 18 -19 18 -44
-1 -24 -18 -60 -19 -73 -2 -15 19 -32 86 -39 151 -7 71 -18 104 -46 133 -13
14 -18 28 -14 41 5 14 1 25 -12 34 -11 7 -21 30 -24 54 -7 50 -36 114 -52 114
-6 0 -20 -8 -32 -18z"/>
<path d="M5365 6219 c-16 -5 -45 -7 -62 -4 -20 4 -33 2 -33 -5 0 -5 -6 -10
-13 -10 -8 0 -19 -12 -26 -26 l-12 -27 41 6 c22 3 43 1 46 -4 19 -32 125 29
111 64 -7 19 -10 19 -52 6z"/>
<path d="M8670 6190 c0 -6 7 -10 15 -10 8 0 15 2 15 4 0 2 -7 6 -15 10 -8 3
-15 1 -15 -4z"/>
<path d="M6161 5828 c-11 -29 -6 -38 22 -38 18 0 22 5 21 28 -1 35 -31 42 -43
10z"/>
<path d="M6583 5453 c-7 -2 -13 -9 -13 -14 0 -14 26 -10 40 6 10 12 10 15 -1
14 -8 0 -20 -3 -26 -6z"/>
<path d="M2686 4095 c4 -8 8 -15 10 -15 2 0 4 7 4 15 0 8 -4 15 -10 15 -5 0
-7 -7 -4 -15z"/>
<path d="M2760 4089 c0 -31 15 -53 29 -45 17 11 13 31 -9 51 -19 18 -20 17
-20 -6z"/>
<path d="M11300 2657 c0 -30 19 -57 40 -57 11 0 17 -5 15 -12 -3 -7 14 -35 36
-61 38 -44 43 -47 58 -32 37 32 58 12 41 -40 -11 -34 0 -74 35 -115 29 -35 39
-113 20 -155 -7 -16 -17 -43 -22 -60 -8 -29 -26 -42 -90 -66 -36 -13 -45 -45
-15 -56 18 -6 136 -59 162 -72 20 -11 34 -53 27 -82 -4 -14 -22 -43 -42 -66
-19 -23 -35 -43 -35 -46 0 -3 15 -9 32 -13 18 -3 38 -14 44 -22 20 -28 70 5
156 102 84 95 125 160 108 171 -19 12 -10 43 17 65 22 17 38 21 75 18 46 -3
48 -2 48 24 0 18 9 33 30 48 20 14 30 30 30 46 0 14 7 39 16 56 19 37 9 48
-46 48 -25 0 -45 -9 -70 -30 -41 -35 -76 -38 -135 -11 -22 10 -52 21 -66 24
-26 7 -50 49 -63 108 -3 15 -18 34 -32 44 l-27 17 7 -46 c8 -50 -1 -58 -32
-28 -11 9 -33 25 -50 34 -27 14 -32 23 -32 54 0 24 -8 46 -25 66 -20 24 -23
33 -14 50 8 15 7 24 -7 39 -9 10 -25 19 -36 19 -10 0 -18 6 -18 14 0 18 -23
28 -87 36 -47 5 -53 4 -53 -13z"/>
<path d="M6237 2616 c-56 -15 -67 -24 -47 -37 25 -16 200 3 200 22 0 5 -13 9
-29 9 -17 0 -33 5 -36 10 -8 13 -28 12 -88 -4z"/>
<path d="M7266 2033 c-12 -13 -6 -53 9 -53 9 0 15 9 15 24 0 26 -12 40 -24 29z"/>
<path d="M7845 2009 c-8 -12 33 -59 52 -59 19 0 16 24 -4 42 -29 25 -41 29
-48 17z"/>
<path d="M7890 1920 c0 -5 4 -10 9 -10 6 0 13 5 16 10 3 6 -1 10 -9 10 -9 0
-16 -4 -16 -10z"/>
<path d="M7375 1851 c-9 -28 16 -80 75 -156 48 -62 61 -95 25 -65 -32 27 -15
-26 25 -74 56 -67 77 -82 140 -95 51 -11 56 -10 72 9 9 11 18 24 20 28 7 17
85 70 108 74 17 2 25 10 26 23 2 39 4 50 14 65 9 13 11 13 19 0 16 -23 17 -11
13 93 -5 112 -13 125 -75 103 -20 -7 -40 -15 -43 -19 -4 -4 -25 -7 -46 -7 -21
0 -38 -3 -38 -7 0 -5 -26 -9 -58 -10 -40 -2 -84 6 -150 27 -109 35 -119 36
-127 11z"/>
<path d="M11195 1824 c-37 -19 -45 -31 -45 -70 0 -33 -36 -78 -72 -90 -11 -3
-28 -26 -39 -51 -30 -71 -57 -102 -112 -130 -29 -14 -68 -38 -87 -53 -43 -33
-185 -100 -214 -100 -12 0 -37 -13 -56 -30 -19 -16 -56 -47 -82 -69 -26 -21
-52 -41 -59 -43 -7 -2 -12 -17 -13 -33 -1 -27 -4 -30 -28 -27 -27 3 -38 -11
-18 -23 6 -3 10 -13 10 -22 0 -11 -6 -14 -24 -9 -37 9 -41 -20 -8 -51 24 -22
33 -25 82 -20 39 4 60 2 74 -9 11 -8 35 -14 53 -14 19 0 36 -6 39 -14 3 -8 28
-16 64 -19 78 -9 145 12 203 63 25 22 52 40 61 40 9 0 16 7 16 15 0 21 35 88
53 104 9 7 19 31 22 54 11 65 19 72 111 111 69 29 94 35 125 30 44 -7 52 7 14
24 -33 15 -32 46 2 69 26 18 35 27 142 144 51 55 53 61 42 85 -10 22 -9 30 4
44 8 9 15 22 15 28 0 18 -38 14 -48 -4 -8 -14 -12 -14 -30 -3 -18 11 -26 11
-42 1 -34 -21 -60 -15 -60 13 0 17 -8 29 -25 37 -14 6 -25 17 -25 25 0 17 -8
16 -45 -3z"/>
<path d="M7834 1536 c-18 -14 -18 -15 -1 -22 22 -8 39 6 28 24 -6 9 -11 9 -27
-2z"/>
<path d="M11046 898 c-7 -18 -12 -34 -12 -35 1 -1 19 0 39 4 42 6 51 35 18 53
-28 14 -29 14 -45 -22z"/>
<path d="M10797 342 c-13 -14 -15 -22 -7 -27 16 -10 33 9 28 30 -3 16 -5 15
-21 -3z"/>
</g>
</svg>
